<svg xmlns="http://www.w3.org/2000/svg" width="23.75" height="23.75" viewBox="0 0 23.75 23.75">
  <path id="question-svgrepo-com" d="M13.875,2A11.875,11.875,0,1,0,25.75,13.875,11.875,11.875,0,0,0,13.875,2Zm0,19a1.188,1.188,0,1,1,1.188-1.188A1.188,1.188,0,0,1,13.875,21Zm2.031-5.474c-.843.4-.843.463-.843.724a1.188,1.188,0,1,1-2.375,0,3.088,3.088,0,0,1,2.185-2.874c.914-.439,1.378-.689,1.378-1.876a1.187,1.187,0,0,0-.582-1.021,3.349,3.349,0,0,0-1.793-.463c-.819,0-2.375.309-2.375,1.484a1.188,1.188,0,1,1-2.375,0c0-2.233,2-3.859,4.75-3.859s4.75,1.627,4.75,3.859a4.049,4.049,0,0,1-2.719,4.026Z" transform="translate(-2 -2)" fill="#fff"/>
</svg>
