<svg width="16" height="16" viewBox="0 0 16 16" fill="none" xmlns="http://www.w3.org/2000/svg">
<g id="Layer_2">
<g id="Group">
<g id="Group_2">
<g id="Group_3">
<path id="Vector" d="M11.6096 2.62158C10.3985 2.65871 10.3988 4.40115 11.6096 4.43796C12.8207 4.40083 12.8204 2.65839 11.6096 2.62158Z" fill="white"/>
<path id="Vector_2" d="M7.56954 3.67285C5.42297 3.67285 3.68292 5.41752 3.68292 7.56967C3.8877 12.7388 11.252 12.7374 11.456 7.56967C11.4562 5.41752 9.71595 3.67285 7.56954 3.67285ZM7.56954 10.0992C6.17626 10.0992 5.04672 8.96661 5.04672 7.56967C5.17963 4.21435 9.96009 4.21515 10.0925 7.56967C10.0924 8.96677 8.96282 10.0992 7.56954 10.0992Z" fill="white"/>
<path id="Vector_3" d="M15.0927 4.44902C15.0366 1.79297 13.3467 0.10217 10.6901 0.0465538C10.0522 -0.0149589 5.08747 -0.0160744 4.44908 0.0465538C1.79303 0.102648 0.10223 1.7925 0.0466138 4.44918C-0.0148989 5.08613 -0.0161738 10.0524 0.0466138 10.6902C0.0961746 13.3376 1.80132 15.0432 4.44908 15.0926C5.08699 15.1548 10.0517 15.1548 10.6901 15.0926C11.4956 15.0558 12.0459 14.9278 12.5273 14.7408C14.2145 14.0668 15.0388 12.5677 15.0927 10.69C15.1542 10.0521 15.1553 5.08741 15.0927 4.44902ZM10.6279 13.7303C10.0002 13.7902 5.13942 13.7911 4.51123 13.7303C3.77339 13.6966 3.3726 13.5733 3.10584 13.4697C0.803252 12.4017 1.51718 10.2419 1.40866 7.27733C1.41105 6.58873 1.40722 5.19992 1.40882 4.51133C1.50077 2.45846 2.4676 1.50804 4.51123 1.40892C5.13974 1.349 9.99924 1.34804 10.6279 1.40892C12.6814 1.50087 13.6309 2.4677 13.7303 4.51117C13.771 5.00183 13.8004 7.68035 13.7303 9.03586C13.806 11.5818 13.69 13.5809 10.6279 13.7303Z" fill="white"/>
</g>
</g>
</g>
</g>
</svg>
