<svg width="16" height="16" viewBox="0 0 16 16" fill="none" xmlns="http://www.w3.org/2000/svg">
<g id="Color-">
<path id="Facebook" fill-rule="evenodd" clip-rule="evenodd" d="M8.08636 15.1392H0.83557C0.373962 15.1392 0 14.765 0 14.3036V0.835565C0 0.37402 0.374021 0 0.83557 0H14.3037C14.7652 0 15.1392 0.37402 15.1392 0.835565V14.3036C15.1392 14.7651 14.7651 15.1392 14.3037 15.1392H10.4459V9.27649H12.4137L12.7084 6.99168H10.4459V5.53297C10.4459 4.87146 10.6295 4.42066 11.5781 4.42066L12.788 4.42013V2.37658C12.5788 2.34873 11.8606 2.28652 11.025 2.28652C9.28062 2.28652 8.08636 3.3513 8.08636 5.30669V6.99168H6.11345V9.27649H8.08636V15.1392Z" fill="white"/>
</g>
</svg>
