<svg width="16" height="16" viewBox="0 0 16 16" fill="none" xmlns="http://www.w3.org/2000/svg">
<g id="Icons">
<g id="Color-">
<path id="LinkedIn" fill-rule="evenodd" clip-rule="evenodd" d="M15.1392 15.1392H11.7933V9.81719C11.7933 8.42415 11.2699 7.47316 10.1189 7.47316C9.23861 7.47316 8.74903 8.11491 8.52116 8.7334C8.43571 8.95539 8.44906 9.26463 8.44906 9.57387V15.1392H5.13424C5.13424 15.1392 5.17697 5.71175 5.13424 4.8548H8.44906V6.46886C8.64489 5.76313 9.70413 4.75592 11.3945 4.75592C13.4916 4.75592 15.1392 6.23524 15.1392 9.42071V15.1392ZM1.78203 3.56839H1.76067C0.692519 3.56839 0 2.7822 0 1.78565C0 0.769706 0.712989 0 1.8025 0C2.89112 0 3.5605 0.767776 3.58186 1.78275C3.58186 2.7793 2.89112 3.56839 1.78203 3.56839ZM0.381854 4.8548H3.33263V15.1392H0.381854V4.8548Z" fill="white"/>
</g>
</g>
</svg>
