<svg width="950" height="870" viewBox="0 0 950 870" fill="none" xmlns="http://www.w3.org/2000/svg">
<path d="M-1174.36 109.087C-1165.43 74.4369 -1129.78 48.1453 -1072.31 30.4824C-1014.91 12.8392 -936.052 3.91243 -841.318 3.74826C-651.866 3.41992 -399.147 38.1348 -128.082 107.99C142.982 177.845 381.002 269.597 546.699 361.45C629.554 407.38 694.274 453.308 736.001 496.498C777.775 539.737 796.275 579.982 787.345 614.632C778.416 649.282 742.769 675.573 685.301 693.236C627.896 710.879 549.039 719.806 454.305 719.97C264.853 720.298 12.1343 685.584 -258.93 615.728C-529.995 545.873 -768.015 454.121 -933.711 362.268C-1016.57 316.338 -1081.29 270.411 -1123.01 227.22C-1164.79 183.982 -1183.29 143.736 -1174.36 109.087Z" stroke="url(#paint0_linear_504_13170)" stroke-opacity="0.5" stroke-width="2"/>
<g filter="url(#filter0_d_504_13170)">
<circle cx="788.234" cy="605.376" r="11" transform="rotate(-165.549 788.234 605.376)" fill="#1CD0BC"/>
</g>
<defs>
<filter id="filter0_d_504_13170" x="627.231" y="444.374" width="322.005" height="322.005" filterUnits="userSpaceOnUse" color-interpolation-filters="sRGB">
<feFlood flood-opacity="0" result="BackgroundImageFix"/>
<feColorMatrix in="SourceAlpha" type="matrix" values="0 0 0 0 0 0 0 0 0 0 0 0 0 0 0 0 0 0 127 0" result="hardAlpha"/>
<feMorphology radius="50" operator="dilate" in="SourceAlpha" result="effect1_dropShadow_504_13170"/>
<feOffset/>
<feGaussianBlur stdDeviation="50"/>
<feComposite in2="hardAlpha" operator="out"/>
<feColorMatrix type="matrix" values="0 0 0 0 0.0392157 0 0 0 0 0.0392157 0 0 0 0 0.0392157 0 0 0 1 0"/>
<feBlend mode="normal" in2="BackgroundImageFix" result="effect1_dropShadow_504_13170"/>
<feBlend mode="normal" in="SourceGraphic" in2="effect1_dropShadow_504_13170" result="shape"/>
</filter>
<linearGradient id="paint0_linear_504_13170" x1="557.5" y1="647" x2="536.597" y2="301.503" gradientUnits="userSpaceOnUse">
<stop stop-color="#1CD0BC"/>
<stop offset="1" stop-color="#353535" stop-opacity="0"/>
</linearGradient>
</defs>
</svg>
