<svg width="20" height="20" viewBox="0 0 20 20" fill="none" xmlns="http://www.w3.org/2000/svg">
<path fill-rule="evenodd" clip-rule="evenodd" d="M1.41598 20.0011L1.46575 19.9514L1.5155 19.9016L1.56522 19.8519L1.61491 19.8022L1.66458 19.7525L1.71423 19.7029L1.76385 19.6533L1.81344 19.6037L1.86301 19.5541L1.91256 19.5046L1.96207 19.4551L2.01157 19.4056L2.06103 19.3561L2.11047 19.3067L2.15988 19.2573L2.20927 19.2079L2.25862 19.1585L2.30796 19.1092L2.35726 19.0599L2.40653 19.0106L2.45578 18.9614L2.505 18.9122L2.5542 18.863L2.60336 18.8138L2.6525 18.7647L2.70161 18.7156L2.75068 18.6665L2.79974 18.6174L2.84876 18.5684L2.89775 18.5194L2.94671 18.4705L2.99565 18.4215L3.04455 18.3726L3.09342 18.3238L3.14227 18.2749L3.19108 18.2261L3.23987 18.1773L3.28862 18.1286L3.33734 18.0798L3.38603 18.0312L3.4347 17.9825L3.48333 17.9339L3.53192 17.8853L3.58049 17.8367L3.62903 17.7882L3.67753 17.7397L3.726 17.6912L3.77444 17.6428L3.82285 17.5944L3.87122 17.546L3.91957 17.4976L3.96788 17.4493L4.01615 17.4011L4.0644 17.3528L4.11261 17.3046L4.16078 17.2564L4.20893 17.2083L4.25704 17.1602L4.30511 17.1121L4.35315 17.0641L4.40116 17.0161L4.44913 16.9681L4.49707 16.9202L4.54497 16.8723L4.59284 16.8244L4.64067 16.7766L4.68847 16.7288L4.73624 16.681L4.78396 16.6333L4.83165 16.5856L4.87931 16.5379L4.92693 16.4903L4.97451 16.4427L5.02206 16.3952L5.06957 16.3477L5.11704 16.3002L5.16448 16.2528L5.21187 16.2054L5.25924 16.158L5.30656 16.1107L5.35385 16.0634L5.4011 16.0162L5.44831 15.969L5.49548 15.9218L5.54261 15.8747L5.58971 15.8276L5.63677 15.7805L5.68379 15.7335L5.73077 15.6865L5.77771 15.6396L5.82461 15.5927L5.87147 15.5458L5.91829 15.499L5.96508 15.4522L6.01182 15.4055L6.05852 15.3588L6.10518 15.3121L6.1518 15.2655L6.19839 15.2189L6.24493 15.1724L6.29143 15.1259L6.33789 15.0794L6.3843 15.033L6.43068 14.9866L6.47701 14.9403L6.52331 14.894L6.56956 14.8478L6.61576 14.8016L6.66193 14.7554L6.70805 14.7093L6.75414 14.6632L6.80017 14.6172L6.84617 14.5712L6.89212 14.5252L6.93803 14.4793L6.9839 14.4334L7.02972 14.3876L7.0755 14.3418L7.12123 14.2961L7.16692 14.2504L7.21257 14.2048L7.25817 14.1592L7.30373 14.1136L7.34924 14.0681L7.39471 14.0226L7.44013 13.9772L7.48551 13.9318L7.53084 13.8865L7.57613 13.8412L7.62137 13.796L7.66656 13.7508L7.71171 13.7057L7.75681 13.6606L7.80187 13.6155L7.84688 13.5705L7.89184 13.5255L7.93676 13.4806L7.98163 13.4357L8.02645 13.3909L8.07122 13.3462L8.11595 13.3014L8.16063 13.2568L8.20526 13.2121L8.24984 13.1675L8.29438 13.123L8.33886 13.0785L8.3833 13.0341L8.42769 12.9897L8.47203 12.9454L8.51632 12.9011L8.56056 12.8568L8.60475 12.8126L8.6489 12.7685L8.69299 12.7244L8.73703 12.6804L8.78103 12.6364L8.82497 12.5924L8.86886 12.5486L8.9127 12.5047L8.95649 12.4609L9.00023 12.4172L9.04392 12.3735L9.08756 12.3299L9.13115 12.2863L9.17468 12.2427L9.21816 12.1993L9.2616 12.1558L9.30497 12.1125L9.3483 12.0691L9.39158 12.0259L9.4348 11.9826L9.47797 11.9395L9.52109 11.8964L9.56415 11.8533L9.60716 11.8103L9.65012 11.7673L9.69302 11.7244L9.73587 11.6816L9.77866 11.6388L9.82141 11.596L9.86409 11.5534L9.90673 11.5107L9.9493 11.4681L9.99183 11.4256L10.0013 11.4161L10.0301 11.445L10.0706 11.4854L10.1109 11.5258L10.1513 11.5661L10.1915 11.6064L10.2317 11.6466L10.2719 11.6867L10.3119 11.7268L10.352 11.7668L10.3919 11.8067L10.4318 11.8466L10.4716 11.8864L10.5114 11.9262L10.5511 11.9659L10.5907 12.0055L10.6303 12.0451L10.6698 12.0846L10.7093 12.1241L10.7487 12.1635L10.788 12.2028L10.8272 12.242L10.8664 12.2812L10.9056 12.3204L10.9446 12.3594L10.9836 12.3984L11.0226 12.4374L11.0614 12.4762L11.1002 12.515L11.139 12.5538L11.1777 12.5924L11.2163 12.6311L11.2548 12.6696L11.2933 12.7081L11.3317 12.7465L11.3701 12.7848L11.4083 12.8231L11.4466 12.8613L11.4847 12.8995L11.5228 12.9376L11.5608 12.9756L11.5987 13.0135L11.6366 13.0514L11.6744 13.0892L11.7122 13.1269L11.7499 13.1646L11.7875 13.2022L11.825 13.2398L11.8625 13.2772L11.8999 13.3146L11.9372 13.352L11.9745 13.3892L12.0117 13.4264L12.0488 13.4635L12.0859 13.5006L12.1228 13.5376L12.1598 13.5745L12.1966 13.6114L12.2334 13.6481L12.2701 13.6848L12.3067 13.7215L12.3433 13.758L12.3798 13.7945L12.4162 13.831L12.4526 13.8673L12.4889 13.9036L12.5251 13.9398L12.5612 13.976L12.5973 14.012L12.6333 14.048L12.6692 14.0839L12.7051 14.1198L12.7409 14.1556L12.7766 14.1913L12.8122 14.2269L12.8478 14.2625L12.8833 14.298L12.9187 14.3334L12.954 14.3687L12.9893 14.404L13.0245 14.4392L13.0596 14.4743L13.0947 14.5094L13.1296 14.5443L13.1645 14.5792L13.1994 14.6141L13.2341 14.6488L13.2688 14.6835L13.3034 14.7181L13.3379 14.7526L13.3724 14.7871L13.4067 14.8214L13.441 14.8557L13.4753 14.89L13.5094 14.9241L13.5435 14.9582L13.5775 14.9922L13.6114 15.0261L13.6452 15.0599L13.679 15.0937L13.7127 15.1274L13.7463 15.161L13.7798 15.1945L13.8133 15.228L13.8467 15.2614L13.88 15.2947L13.9132 15.3279L13.9464 15.361L13.9794 15.3941L14.0124 15.4271L14.0453 15.46L14.0782 15.4928L14.1109 15.5256L14.1436 15.5582L14.1762 15.5908L14.2087 15.6233L14.2411 15.6558L14.2735 15.6881L14.3057 15.7204L14.3379 15.7526L14.3701 15.7847L14.4021 15.8167L14.434 15.8487L14.4659 15.8806L14.4977 15.9124L14.5294 15.9441L14.561 15.9757L14.5926 16.0072L14.6241 16.0387L14.6554 16.0701L14.6867 16.1014L14.718 16.1326L14.7491 16.1637L14.7802 16.1948L14.8111 16.2258L14.842 16.2567L14.8728 16.2875L14.9036 16.3182L14.9342 16.3488L14.9648 16.3794L14.9952 16.4099L15.0256 16.4402L15.0559 16.4706L15.0861 16.5008L15.1163 16.5309L15.1463 16.561L15.1763 16.5909L15.2062 16.6208L15.236 16.6506L15.2657 16.6803L15.2953 16.7099L15.3249 16.7395L15.3543 16.7689L15.3837 16.7983L15.413 16.8276L15.4422 16.8568L15.4713 16.8859L15.5003 16.9149L15.5293 16.9439L15.5581 16.9727L15.5869 17.0015L15.6156 17.0302L15.6441 17.0588L15.6726 17.0873L15.7011 17.1157L15.7294 17.144L15.7576 17.1722L15.7858 17.2004L15.8139 17.2285L15.8418 17.2564L15.8697 17.2843L15.8975 17.3121L15.9252 17.3398L15.9528 17.3674L15.9804 17.395L16.0078 17.4224L16.0352 17.4498L16.0624 17.477L16.0896 17.5042L16.1167 17.5313L16.1437 17.5583L16.1706 17.5852L16.1974 17.612L16.2241 17.6387L16.2507 17.6653L16.2773 17.6919L16.3037 17.7183L16.3301 17.7447L16.3563 17.7709L16.3825 17.7971L16.4086 17.8232L16.4346 17.8492L16.4605 17.8751L16.4863 17.9009L16.512 17.9266L16.5376 17.9522L16.5631 17.9777L16.5886 18.0031L16.6139 18.0285L16.6392 18.0537L16.6643 18.0789L16.6894 18.1039L16.7143 18.1289L16.7392 18.1538L16.764 18.1785L16.7887 18.2032L16.8132 18.2278L16.8377 18.2523L16.8621 18.2767L16.8864 18.301L16.9106 18.3252L16.9347 18.3493L16.9588 18.3733L16.9827 18.3972L17.0065 18.4211L17.0302 18.4448L17.0539 18.4684L17.0774 18.4919L17.1008 18.5154L17.1242 18.5387L17.1474 18.562L17.1706 18.5851L17.1936 18.6082L17.2166 18.6311L17.2394 18.654L17.2622 18.6767L17.2848 18.6994L17.3074 18.722L17.3299 18.7444L17.3522 18.7668L17.3745 18.789L17.3967 18.8112L17.4187 18.8333L17.4407 18.8552L17.4626 18.8771L17.4844 18.8989L17.506 18.9206L17.5276 18.9421L17.5491 18.9636L17.5704 18.985L17.5917 19.0062L17.6129 19.0274L17.634 19.0485L17.6549 19.0694L17.6758 19.0903L17.6966 19.1111L17.7172 19.1317L17.7378 19.1523L17.7583 19.1728L17.7786 19.1931L17.7989 19.2134L17.819 19.2336L17.8391 19.2536L17.859 19.2736L17.8789 19.2934L17.8986 19.3132L17.9183 19.3328L17.9378 19.3523L17.9573 19.3718L17.9766 19.3911L17.9958 19.4103L18.015 19.4295L18.034 19.4485L18.0529 19.4674L18.0717 19.4862L18.0904 19.5049L18.109 19.5235L18.1275 19.542L18.1459 19.5604L18.1642 19.5787L18.1824 19.5969L18.2005 19.615L18.2185 19.633L18.2363 19.6508L18.2541 19.6686L18.2718 19.6863L18.2893 19.7038L18.3068 19.7213L18.3241 19.7386L18.3413 19.7558L18.3585 19.773L18.3755 19.79L18.3924 19.8069L18.4092 19.8237L18.4259 19.8404L18.4425 19.857L18.459 19.8735L18.4753 19.8898L18.4916 19.9061L18.5078 19.9222L18.5238 19.9383L18.5397 19.9542L18.5556 19.9701L18.5713 19.9858L18.5869 20.0014L20.0011 18.5871L19.9855 18.5715L19.9698 18.5558L19.9539 18.54L19.938 18.524L19.9219 18.508L19.9058 18.4918L19.8895 18.4756L19.8731 18.4592L19.8567 18.4427L19.8401 18.4261L19.8234 18.4094L19.8066 18.3926L19.7897 18.3757L19.7726 18.3587L19.7555 18.3416L19.7383 18.3244L19.7209 18.307L19.7035 18.2896L19.686 18.272L19.6683 18.2544L19.6505 18.2366L19.6327 18.2187L19.6147 18.2008L19.5966 18.1827L19.5784 18.1645L19.5601 18.1462L19.5417 18.1278L19.5232 18.1093L19.5046 18.0907L19.4859 18.072L19.4671 18.0532L19.4482 18.0343L19.4291 18.0152L19.41 17.9961L19.3908 17.9769L19.3714 17.9575L19.352 17.9381L19.3325 17.9186L19.3128 17.8989L19.2931 17.8792L19.2732 17.8593L19.2533 17.8394L19.2332 17.8193L19.2131 17.7992L19.1928 17.7789L19.1724 17.7585L19.152 17.7381L19.1314 17.7175L19.1107 17.6968L19.09 17.6761L19.0691 17.6552L19.0481 17.6342L19.0271 17.6132L19.0059 17.592L18.9846 17.5707L18.9633 17.5494L18.9418 17.5279L18.9202 17.5063L18.8985 17.4846L18.8768 17.4629L18.8549 17.441L18.8329 17.419L18.8109 17.397L18.7887 17.3748L18.7664 17.3525L18.7441 17.3302L18.7216 17.3077L18.699 17.2851L18.6764 17.2625L18.6536 17.2397L18.6308 17.2169L18.6078 17.1939L18.5848 17.1709L18.5616 17.1477L18.5384 17.1245L18.515 17.1011L18.4916 17.0777L18.468 17.0542L18.4444 17.0305L18.4207 17.0068L18.3969 16.983L18.3729 16.9591L18.3489 16.9351L18.3248 16.911L18.3006 16.8867L18.2763 16.8624L18.2519 16.838L18.2274 16.8136L18.2028 16.789L18.1782 16.7643L18.1534 16.7395L18.1285 16.7146L18.1035 16.6897L18.0785 16.6646L18.0533 16.6395L18.0281 16.6142L18.0028 16.5889L17.9773 16.5635L17.9518 16.5379L17.9262 16.5123L17.9005 16.4866L17.8747 16.4608L17.8488 16.4349L17.8228 16.4089L17.7967 16.3829L17.7705 16.3567L17.7443 16.3304L17.7179 16.3041L17.6915 16.2776L17.6649 16.2511L17.6383 16.2245L17.6116 16.1977L17.5848 16.1709L17.5579 16.144L17.5309 16.117L17.5038 16.09L17.4766 16.0628L17.4494 16.0355L17.422 16.0082L17.3946 15.9807L17.367 15.9532L17.3394 15.9256L17.3117 15.8979L17.2839 15.8701L17.256 15.8422L17.228 15.8142L17.2 15.7861L17.1718 15.758L17.1436 15.7298L17.1153 15.7014L17.0868 15.673L17.0583 15.6445L17.0297 15.6159L17.0011 15.5872L16.9723 15.5585L16.9434 15.5296L16.9145 15.5007L16.8855 15.4717L16.8564 15.4426L16.8272 15.4134L16.7979 15.3841L16.7685 15.3547L16.7391 15.3252L16.7095 15.2957L16.6799 15.2661L16.6502 15.2364L16.6204 15.2066L16.5905 15.1767L16.5605 15.1467L16.5305 15.1167L16.5003 15.0865L16.4701 15.0563L16.4398 15.026L16.4094 14.9956L16.3789 14.9651L16.3484 14.9346L16.3177 14.9039L16.287 14.8732L16.2562 14.8424L16.2253 14.8115L16.1943 14.7806L16.1633 14.7495L16.1322 14.7184L16.1009 14.6872L16.0696 14.6558L16.0382 14.6245L16.0068 14.593L15.9752 14.5615L15.9436 14.5298L15.9119 14.4981L15.8801 14.4663L15.8482 14.4345L15.8163 14.4025L15.7842 14.3705L15.7521 14.3384L15.7199 14.3062L15.6877 14.2739L15.6553 14.2415L15.6229 14.2091L15.5904 14.1766L15.5578 14.144L15.5251 14.1113L15.4923 14.0786L15.4595 14.0457L15.4266 14.0128L15.3936 13.9799L15.3605 13.9468L15.3274 13.9136L15.2942 13.8804L15.2609 13.8471L15.2275 13.8137L15.194 13.7803L15.1605 13.7468L15.1269 13.7131L15.0932 13.6795L15.0594 13.6457L15.0256 13.6118L14.9917 13.5779L14.9577 13.5439L14.9236 13.5099L14.8895 13.4757L14.8552 13.4415L14.8209 13.4072L14.7866 13.3728L14.7521 13.3384L14.7176 13.3038L14.683 13.2692L14.6483 13.2346L14.6135 13.1998L14.5787 13.165L14.5438 13.1301L14.5088 13.0951L14.4738 13.0601L14.4387 13.025L14.4035 12.9898L14.3682 12.9545L14.3329 12.9191L14.2974 12.8837L14.262 12.8482L14.2264 12.8127L14.1908 12.777L14.155 12.7413L14.1193 12.7056L14.0834 12.6697L14.0475 12.6338L14.0115 12.5978L13.9754 12.5617L13.9393 12.5256L13.9031 12.4894L13.8668 12.4531L13.8304 12.4167L13.794 12.3803L13.7575 12.3438L13.7209 12.3072L13.6843 12.2706L13.6476 12.2339L13.6108 12.1971L13.574 12.1603L13.537 12.1234L13.5 12.0864L13.463 12.0493L13.4259 12.0122L13.3887 11.975L13.3514 11.9377L13.3141 11.9004L13.2767 11.863L13.2392 11.8255L13.2016 11.788L13.164 11.7504L13.1264 11.7127L13.0886 11.675L13.0508 11.6371L13.0129 11.5993L12.975 11.5613L12.937 11.5233L12.8989 11.4852L12.8607 11.4471L12.8225 11.4089L12.7842 11.3706L12.7459 11.3322L12.7075 11.2938L12.669 11.2554L12.6305 11.2168L12.5918 11.1782L12.5532 11.1395L12.5144 11.1008L12.4756 11.062L12.4368 11.0231L12.3978 10.9842L12.3588 10.9452L12.3197 10.9061L12.2806 10.867L12.2414 10.8278L12.2022 10.7885L12.1628 10.7492L12.1235 10.7098L12.084 10.6704L12.0445 10.6309L12.0049 10.5913L11.9653 10.5517L11.9256 10.512L11.8858 10.4722L11.846 10.4324L11.8061 10.3925L11.7661 10.3525L11.7261 10.3125L11.6861 10.2724L11.6459 10.2323L11.6057 10.1921L11.5655 10.1519L11.5251 10.1115L11.4848 10.0712L11.4443 10.0307L11.4156 10.002L11.4444 9.97312L11.4848 9.93268L11.5252 9.89229L11.5655 9.85197L11.6058 9.81172L11.646 9.77152L11.6861 9.73138L11.7262 9.69131L11.7662 9.6513L11.8062 9.61135L11.8461 9.57146L11.8859 9.53163L11.9257 9.49187L11.9654 9.45217L12.005 9.41253L12.0446 9.37296L12.0841 9.33344L12.1235 9.294L12.1629 9.25461L12.2023 9.21529L12.2415 9.17603L12.2807 9.13684L12.3198 9.09771L12.3589 9.05865L12.3979 9.01965L12.4368 8.98071L12.4757 8.94184L12.5145 8.90304L12.5533 8.8643L12.5919 8.82562L12.6305 8.78701L12.6691 8.74847L12.7076 8.70999L12.746 8.67158L12.7843 8.63323L12.8226 8.59496L12.8608 8.55674L12.899 8.5186L12.9371 8.48052L12.9751 8.44251L13.013 8.40456L13.0509 8.36668L13.0887 8.32887L13.1264 8.29113L13.1641 8.25346L13.2017 8.21585L13.2393 8.17831L13.2767 8.14084L13.3141 8.10344L13.3515 8.06611L13.3887 8.02884L13.4259 7.99165L13.4631 7.95452L13.5001 7.91746L13.5371 7.88048L13.574 7.84356L13.6109 7.80671L13.6477 7.76993L13.6844 7.73323L13.721 7.69659L13.7576 7.66002L13.7941 7.62353L13.8305 7.5871L13.8669 7.55075L13.9031 7.51447L13.9394 7.47825L13.9755 7.44211L14.0116 7.40605L14.0476 7.37005L14.0835 7.33412L14.1193 7.29827L14.1551 7.26249L14.1908 7.22678L14.2265 7.19115L14.262 7.15559L14.2975 7.1201L14.3329 7.08468L14.3683 7.04934L14.4036 7.01407L14.4388 6.97887L14.4739 6.94375L14.5089 6.9087L14.5439 6.87373L14.5788 6.83883L14.6136 6.80401L14.6484 6.76926L14.6831 6.73458L14.7177 6.69998L14.7522 6.66546L14.7866 6.63101L14.821 6.59663L14.8553 6.56233L14.8895 6.52811L14.9237 6.49396L14.9578 6.45989L14.9918 6.4259L15.0257 6.39198L15.0595 6.35814L15.0933 6.32437L15.127 6.29069L15.1606 6.25708L15.1941 6.22354L15.2276 6.19009L15.261 6.15671L15.2943 6.12341L15.3275 6.09019L15.3606 6.05704L15.3937 6.02398L15.4267 5.99099L15.4596 5.95808L15.4924 5.92525L15.5252 5.8925L15.5578 5.85983L15.5904 5.82724L15.623 5.79472L15.6554 5.76229L15.6877 5.72994L15.72 5.69766L15.7522 5.66547L15.7843 5.63336L15.8164 5.60132L15.8483 5.56937L15.8802 5.5375L15.912 5.50571L15.9437 5.474L15.9753 5.44237L16.0069 5.41083L16.0383 5.37936L16.0697 5.34798L16.101 5.31668L16.1322 5.28546L16.1634 5.25432L16.1944 5.22327L16.2254 5.1923L16.2563 5.16141L16.2871 5.1306L16.3178 5.09988L16.3485 5.06924L16.379 5.03869L16.4095 5.00821L16.4399 4.97783L16.4702 4.94752L16.5004 4.9173L16.5306 4.88716L16.5606 4.85711L16.5906 4.82715L16.6205 4.79726L16.6503 4.76747L16.68 4.73775L16.7096 4.70813L16.7391 4.67859L16.7686 4.64913L16.798 4.61976L16.8273 4.59048L16.8565 4.56128L16.8856 4.53217L16.9146 4.50314L16.9435 4.4742L16.9724 4.44535L17.0011 4.41659L17.0298 4.38791L17.0584 4.35932L17.0869 4.33082L17.1153 4.3024L17.1437 4.27407L17.1719 4.24583L17.2001 4.21768L17.2281 4.18962L17.2561 4.16164L17.284 4.13376L17.3118 4.10596L17.3395 4.07825L17.3671 4.05063L17.3946 4.0231L17.4221 3.99566L17.4494 3.96831L17.4767 3.94105L17.5039 3.91388L17.531 3.8868L17.558 3.85981L17.5849 3.83291L17.6117 3.8061L17.6384 3.77938L17.665 3.75275L17.6916 3.72621L17.718 3.69977L17.7444 3.67341L17.7706 3.64715L17.7968 3.62098L17.8229 3.5949L17.8489 3.56891L17.8748 3.54302L17.9006 3.51721L17.9263 3.4915L17.9519 3.46589L17.9774 3.44036L18.0028 3.41493L18.0282 3.3896L18.0534 3.36435L18.0786 3.3392L18.1036 3.31414L18.1286 3.28918L18.1535 3.26431L18.1782 3.23954L18.2029 3.21486L18.2275 3.19027L18.252 3.16578L18.2764 3.14139L18.3007 3.11708L18.3249 3.09288L18.349 3.06877L18.373 3.04475L18.397 3.02084L18.4208 2.99701L18.4445 2.97329L18.4681 2.94966L18.4917 2.92612L18.5151 2.90268L18.5385 2.87934L18.5617 2.8561L18.5848 2.83295L18.6079 2.8099L18.6308 2.78695L18.6537 2.7641L18.6765 2.74134L18.6991 2.71868L18.7217 2.69612L18.7441 2.67366L18.7665 2.65129L18.7888 2.62903L18.8109 2.60686L18.833 2.58479L18.855 2.56282L18.8769 2.54095L18.8986 2.51918L18.9203 2.49751L18.9419 2.47594L18.9633 2.45447L18.9847 2.4331L19.006 2.41183L19.0272 2.39066L19.0482 2.36959L19.0692 2.34862L19.0901 2.32776L19.1108 2.30699L19.1315 2.28632L19.1521 2.26576L19.1725 2.24529L19.1929 2.22493L19.2131 2.20468L19.2333 2.18452L19.2534 2.16446L19.2733 2.14451L19.2932 2.12466L19.3129 2.10491L19.3326 2.08527L19.3521 2.06573L19.3715 2.04629L19.3909 2.02696L19.4101 2.00773L19.4292 1.9886L19.4483 1.96958L19.4672 1.95066L19.486 1.93184L19.5047 1.91313L19.5233 1.89453L19.5418 1.87602L19.5602 1.85763L19.5785 1.83934L19.5967 1.82115L19.6148 1.80307L19.6327 1.78509L19.6506 1.76723L19.6684 1.74946L19.686 1.7318L19.7036 1.71425L19.721 1.69681L19.7384 1.67947L19.7556 1.66224L19.7727 1.64511L19.7898 1.6281L19.8067 1.61119L19.8235 1.59438L19.8402 1.57769L19.8567 1.5611L19.8732 1.54462L19.8896 1.52825L19.9059 1.51198L19.922 1.49583L19.9381 1.47978L19.954 1.46384L19.9698 1.44801L19.9856 1.43229L20.0012 1.41668L18.587 0.00244141L18.5714 0.0180531L18.5557 0.0337715L18.5398 0.0496006L18.5239 0.0655403L18.5078 0.0815868L18.4917 0.0977421L18.4754 0.114004L18.459 0.130377L18.4426 0.146856L18.426 0.163445L18.4093 0.18014L18.3925 0.196943L18.3756 0.213854L18.3585 0.230871L18.3414 0.247995L18.3242 0.265228L18.3068 0.282566L18.2894 0.300011L18.2719 0.317562L18.2542 0.33522L18.2364 0.352983L18.2186 0.370852L18.2006 0.388828L18.1825 0.406908L18.1643 0.425095L18.146 0.443386L18.1276 0.461782L18.1091 0.480284L18.0905 0.49889L18.0718 0.517599L18.053 0.536415L18.0341 0.555334L18.015 0.574358L17.9959 0.593485L17.9767 0.612715L17.9574 0.63205L17.9379 0.651487L17.9184 0.671028L17.8987 0.690672L17.879 0.710421L17.8591 0.73027L17.8392 0.750221L17.8191 0.770277L17.799 0.790434L17.7787 0.810692L17.7583 0.831053L17.7379 0.851517L17.7173 0.87208L17.6966 0.892746L17.6759 0.913513L17.655 0.934382L17.634 0.955349L17.613 0.97642L17.5918 0.997589L17.5705 1.01886L17.5492 1.04023L17.5277 1.0617L17.5061 1.08327L17.4844 1.10494L17.4627 1.12671L17.4408 1.14858L17.4188 1.17055L17.3968 1.19262L17.3746 1.21479L17.3523 1.23705L17.33 1.25942L17.3075 1.28188L17.2849 1.30444L17.2623 1.3271L17.2395 1.34986L17.2167 1.37271L17.1937 1.39566L17.1707 1.41871L17.1475 1.44186L17.1243 1.4651L17.1009 1.48844L17.0775 1.51188L17.054 1.53541L17.0303 1.55904L17.0066 1.58277L16.9828 1.60659L16.9589 1.63051L16.9348 1.65453L16.9107 1.67864L16.8865 1.70284L16.8622 1.72714L16.8378 1.75154L16.8133 1.77603L16.7887 1.80062L16.7641 1.8253L16.7393 1.85007L16.7144 1.87494L16.6894 1.8999L16.6644 1.92496L16.6392 1.95011L16.614 1.97535L16.5887 2.00069L16.5632 2.02612L16.5377 2.05165L16.5121 2.07726L16.4864 2.10297L16.4606 2.12877L16.4347 2.15467L16.4087 2.18066L16.3826 2.20674L16.3564 2.23291L16.3302 2.25917L16.3038 2.28552L16.2774 2.31197L16.2508 2.33851L16.2242 2.36514L16.1975 2.39186L16.1707 2.41866L16.1438 2.44556L16.1168 2.47256L16.0897 2.49964L16.0625 2.52681L16.0353 2.55407L16.0079 2.58142L15.9805 2.60886L15.9529 2.63639L15.9253 2.66401L15.8976 2.69172L15.8698 2.71952L15.8419 2.7474L15.8139 2.77538L15.7859 2.80344L15.7577 2.83159L15.7295 2.85983L15.7012 2.88816L15.6727 2.91657L15.6442 2.94508L15.6156 2.97367L15.587 3.00235L15.5582 3.03111L15.5293 3.05996L15.5004 3.0889L15.4714 3.11793L15.4423 3.14704L15.4131 3.17624L15.3838 3.20552L15.3544 3.23489L15.325 3.26435L15.2954 3.29389L15.2658 3.32351L15.2361 3.35322L15.2063 3.38302L15.1764 3.4129L15.1464 3.44287L15.1164 3.47292L15.0862 3.50306L15.056 3.53328L15.0257 3.56358L14.9953 3.59397L14.9648 3.62444L14.9343 3.655L14.9036 3.68564L14.8729 3.71636L14.8421 3.74717L14.8112 3.77806L14.7802 3.80903L14.7492 3.84008L14.7181 3.87122L14.6868 3.90244L14.6555 3.93374L14.6241 3.96512L14.5927 3.99658L14.5611 4.02813L14.5295 4.05976L14.4978 4.09147L14.466 4.12326L14.4341 4.15513L14.4022 4.18708L14.3701 4.21911L14.338 4.25123L14.3058 4.28342L14.2736 4.31569L14.2412 4.34805L14.2088 4.38048L14.1763 4.41299L14.1437 4.44559L14.111 4.47826L14.0782 4.51101L14.0454 4.54384L14.0125 4.57675L13.9795 4.60973L13.9464 4.6428L13.9133 4.67594L13.8801 4.70917L13.8468 4.74247L13.8134 4.77584L13.7799 4.8093L13.7464 4.84283L13.7128 4.87644L13.6791 4.91013L13.6453 4.9439L13.6115 4.97774L13.5776 5.01166L13.5436 5.04565L13.5095 5.07972L13.4754 5.11387L13.4411 5.14809L13.4068 5.18239L13.3725 5.21676L13.338 5.25121L13.3035 5.28574L13.2689 5.32034L13.2342 5.35502L13.1994 5.38977L13.1646 5.42459L13.1297 5.45949L13.0947 5.49446L13.0597 5.52951L13.0246 5.56463L12.9894 5.59983L12.9541 5.6351L12.9188 5.67044L12.8833 5.70586L12.8479 5.74134L12.8123 5.77691L12.7767 5.81254L12.7409 5.84825L12.7052 5.88403L12.6693 5.91988L12.6334 5.95581L12.5974 5.9918L12.5613 6.02787L12.5252 6.06401L12.489 6.10022L12.4527 6.13651L12.4163 6.17286L12.3799 6.20929L12.3434 6.24578L12.3068 6.28235L12.2702 6.31899L12.2335 6.35569L12.1967 6.39247L12.1599 6.42932L12.1229 6.46624L12.0859 6.50322L12.0489 6.54028L12.0118 6.57741L11.9746 6.6146L11.9373 6.65186L11.9 6.6892L11.8626 6.7266L11.8251 6.76407L11.7875 6.80161L11.7499 6.83921L11.7123 6.87689L11.6745 6.91463L11.6367 6.95244L11.5988 6.99032L11.5609 7.02826L11.5229 7.06628L11.4848 7.10436L11.4466 7.1425L11.4084 7.18071L11.3701 7.21899L11.3318 7.25734L11.2934 7.29575L11.2549 7.33423L11.2164 7.37277L11.1777 7.41138L11.1391 7.45006L11.1003 7.4888L11.0615 7.5276L11.0227 7.56647L10.9837 7.60541L10.9447 7.64441L10.9056 7.68347L10.8665 7.7226L10.8273 7.76179L10.7881 7.80105L10.7487 7.84037L10.7094 7.87976L10.6699 7.9192L10.6304 7.95871L10.5908 7.99829L10.5512 8.03793L10.5115 8.07763L10.4717 8.11739L10.4319 8.15722L10.392 8.1971L10.352 8.23705L10.312 8.27707L10.272 8.31714L10.2318 8.35728L10.1916 8.39747L10.1514 8.43773L10.111 8.47805L10.0707 8.51843L10.0302 8.55887L10.0013 8.58777L9.99174 8.5782L9.94922 8.53568L9.90664 8.4931L9.864 8.45047L9.82132 8.40779L9.77858 8.36505L9.73578 8.32225L9.69293 8.2794L9.65003 8.2365L9.60707 8.19355L9.56406 8.15054L9.521 8.10748L9.47788 8.06436L9.43471 8.02119L9.39149 7.97797L9.34821 7.9347L9.30489 7.89138L9.26151 7.848L9.21808 7.80457L9.17459 7.76109L9.13106 7.71755L9.08747 7.67397L9.04383 7.63033L9.00014 7.58665L8.9564 7.54291L8.91261 7.49912L8.86877 7.45528L8.82488 7.41139L8.78094 7.36745L8.73694 7.32345L8.6929 7.27941L8.64881 7.23532L8.60467 7.19118L8.56047 7.14699L8.51623 7.10275L8.47194 7.05846L8.4276 7.01412L8.38321 6.96974L8.33877 6.9253L8.29429 6.88082L8.24975 6.83628L8.20517 6.7917L8.16054 6.74707L8.11586 6.7024L8.07113 6.65767L8.02636 6.6129L7.98154 6.56808L7.93667 6.52321L7.89175 6.4783L7.84679 6.43334L7.80178 6.38833L7.75673 6.34328L7.71162 6.29818L7.66647 6.25303L7.62128 6.20784L7.57604 6.1626L7.53075 6.11731L7.48542 6.07198L7.44004 6.02661L7.39462 5.98119L7.34915 5.93572L7.30364 5.89021L7.25808 5.84465L7.21248 5.79905L7.16684 5.75341L7.12115 5.70772L7.07541 5.66199L7.02963 5.61621L6.98381 5.57039L6.93794 5.52453L6.89203 5.47862L6.84608 5.43267L6.80009 5.38667L6.75405 5.34064L6.70797 5.29456L6.66184 5.24844L6.61568 5.20227L6.56947 5.15607L6.52322 5.10982L6.47692 5.06353L6.43059 5.01719L6.38421 4.97082L6.3378 4.9244L6.29134 4.87795L6.24484 4.83145L6.1983 4.78491L6.15172 4.73833L6.10509 4.69171L6.05843 4.64505L6.01173 4.59835L5.96499 4.55161L5.9182 4.50483L5.87138 4.45801L5.82452 4.41115L5.77762 4.36425L5.73068 4.31731L5.6837 4.27033L5.63668 4.22331L5.58962 4.17626L5.54253 4.12916L5.49539 4.08203L5.44822 4.03486L5.40101 3.98765L5.35376 3.9404L5.30647 3.89312L5.25915 3.8458L5.21179 3.79844L5.16439 3.75104L5.11695 3.70361L5.06948 3.65614L5.02197 3.60863L4.97442 3.56108L4.92684 3.5135L4.87922 3.46589L4.83156 3.41823L4.78387 3.37054L4.73615 3.32282L4.68838 3.27506L4.64059 3.22726L4.59275 3.17943L4.54488 3.13156L4.49698 3.08366L4.44904 3.03573L4.40107 2.98776L4.35306 2.93975L4.30502 2.89171L4.25695 2.84364L4.20884 2.79553L4.16069 2.74739L4.11252 2.69921L4.06431 2.65101L4.01606 2.60276L3.96779 2.55449L3.91948 2.50618L3.87114 2.45784L3.82276 2.40947L3.77435 2.36106L3.72591 2.31263L3.67744 2.26416L3.62894 2.21565L3.5804 2.16712L3.53184 2.11855L3.48324 2.06996L3.43461 2.02133L3.38595 1.97267L3.33725 1.92398L3.28853 1.87526L3.23978 1.82651L3.19099 1.77773L3.14218 1.72891L3.09334 1.68007L3.04446 1.6312L2.99556 1.5823L2.94662 1.53337L2.89766 1.48441L2.84867 1.43541L2.79965 1.3864L2.7506 1.33735L2.70152 1.28827L2.65241 1.23916L2.60327 1.19003L2.55411 1.14087L2.50492 1.09168L2.45569 1.04246L2.40645 0.99321L2.35717 0.943936L2.30787 0.894634L2.25854 0.845306L2.20918 0.795949L2.15979 0.746566L2.11038 0.697157L2.06094 0.64772L2.01148 0.598257L1.96199 0.548768L1.91247 0.499253L1.86293 0.449711L1.81336 0.400144L1.76376 0.350551L1.71414 0.300933L1.6645 0.251289L1.61483 0.201621L1.56513 0.151927L1.51541 0.102209L1.46566 0.0524654L1.41589 0.00269777L0.00170898 1.41694L0.0514786 1.46671L0.101224 1.51645L0.150944 1.56617L0.20064 1.61586L0.25031 1.66553L0.299956 1.71517L0.349576 1.76479L0.399171 1.81439L0.44874 1.86395L0.498283 1.91349L0.547801 1.96301L0.597292 2.0125L0.646757 2.06196L0.696195 2.1114L0.745607 2.16081L0.794992 2.21019L0.84435 2.25955L0.893681 2.30888L0.942985 2.35818L0.992261 2.40745L1.04151 2.4567L1.09073 2.50592L1.13992 2.55511L1.18909 2.60427L1.23822 2.65341L1.28733 2.70251L1.33641 2.75159L1.38546 2.80064L1.43448 2.84966L1.48348 2.89865L1.53244 2.94761L1.58137 2.99654L1.63028 3.04544L1.67915 3.09431L1.72799 3.14316L1.77681 3.19197L1.82559 3.24075L1.87435 3.2895L1.92307 3.33822L1.97176 3.38691L2.02042 3.43557L2.06905 3.4842L2.11765 3.5328L2.16622 3.58136L2.21475 3.6299L2.26326 3.6784L2.31173 3.72687L2.36017 3.7753L2.40858 3.82371L2.45695 3.87208L2.50529 3.92042L2.5536 3.96873L2.60188 4.01701L2.65012 4.06525L2.69833 4.11346L2.74651 4.16163L2.79465 4.20977L2.84276 4.25788L2.89084 4.30595L2.93888 4.35399L2.98689 4.402L3.03486 4.44997L3.0828 4.4979L3.1307 4.54581L3.17857 4.59367L3.2264 4.6415L3.2742 4.6893L3.32196 4.73706L3.36969 4.78478L3.41738 4.83247L3.46503 4.88013L3.51265 4.92774L3.56024 4.97532L3.60778 5.02287L3.65529 5.07038L3.70277 5.11785L3.7502 5.16528L3.7976 5.21268L3.84496 5.26004L3.89229 5.30736L3.93957 5.35465L3.98682 5.40189L4.03403 5.4491L4.08121 5.49627L4.12834 5.54341L4.17544 5.5905L4.22249 5.63756L4.26951 5.68457L4.31649 5.73155L4.36343 5.77849L4.41033 5.82539L4.4572 5.87225L4.50402 5.91907L4.5508 5.96585L4.59754 6.01259L4.64425 6.05929L4.69091 6.10595L4.73753 6.15257L4.78411 6.19915L4.83065 6.24569L4.87715 6.29219L4.92361 6.33865L4.97003 6.38506L5.0164 6.43143L5.06274 6.47777L5.10903 6.52406L5.15528 6.57031L5.20149 6.61651L5.24766 6.66268L5.29378 6.7088L5.33986 6.75488L5.3859 6.80092L5.4319 6.84691L5.47785 6.89286L5.52376 6.93877L5.56962 6.98463L5.61545 7.03045L5.66122 7.07623L5.70696 7.12196L5.75265 7.16765L5.7983 7.2133L5.8439 7.2589L5.88946 7.30445L5.93497 7.34996L5.98044 7.39543L6.02586 7.44085L6.07124 7.48622L6.11657 7.53155L6.16185 7.57684L6.20709 7.62208L6.25229 7.66727L6.29744 7.71242L6.34254 7.75752L6.3876 7.80257L6.43261 7.84758L6.47757 7.89254L6.52248 7.93746L6.56735 7.98232L6.61217 8.02714L6.65695 8.07191L6.70167 8.11664L6.74635 8.16132L6.79098 8.20594L6.83557 8.25053L6.8801 8.29506L6.92459 8.33954L6.96903 8.38398L7.01341 8.42837L7.05775 8.4727L7.10205 8.51699L7.14629 8.56123L7.19048 8.60542L7.23462 8.64956L7.27871 8.69366L7.32276 8.7377L7.36675 8.78169L7.41069 8.82563L7.45459 8.86952L7.49843 8.91336L7.54222 8.95715L7.58596 9.00089L7.62965 9.04457L7.67329 9.08821L7.71687 9.1318L7.76041 9.17533L7.80389 9.21881L7.84732 9.26224L7.8907 9.30562L7.93403 9.34894L7.9773 9.39222L8.02053 9.43544L8.06369 9.4786L8.10681 9.52172L8.14987 9.56478L8.19288 9.60779L8.23584 9.65074L8.27874 9.69365L8.32159 9.73649L8.36439 9.77929L8.40713 9.82203L8.44982 9.86471L8.49245 9.90734L8.53503 9.94992L8.57755 9.99244L8.58707 10.002L8.57764 10.0114L8.53512 10.0539L8.49254 10.0965L8.44991 10.1391L8.40722 10.1818L8.36448 10.2245L8.32168 10.2673L8.27883 10.3102L8.23593 10.3531L8.19297 10.396L8.14996 10.439L8.1069 10.4821L8.06378 10.5252L8.02061 10.5684L7.97739 10.6116L7.93412 10.6549L7.89079 10.6982L7.84741 10.7416L7.80398 10.785L7.7605 10.8285L7.71696 10.872L7.67337 10.9156L7.62974 10.9593L7.58605 11.0029L7.54231 11.0467L7.49852 11.0905L7.45467 11.1343L7.41078 11.1782L7.36684 11.2221L7.32285 11.2661L7.2788 11.3102L7.23471 11.3543L7.19057 11.3984L7.14637 11.4426L7.10213 11.4868L7.05784 11.5311L7.0135 11.5755L6.96911 11.6199L6.92468 11.6643L6.88019 11.7088L6.83566 11.7533L6.79107 11.7979L6.74644 11.8425L6.70176 11.8872L6.65704 11.9319L6.61226 11.9767L6.56744 12.0215L6.52257 12.0664L6.47766 12.1113L6.43269 12.1562L6.38768 12.2013L6.34263 12.2463L6.29753 12.2914L6.25238 12.3366L6.20718 12.3818L6.16194 12.427L6.11666 12.4723L6.07132 12.5176L6.02595 12.563L5.98052 12.6084L5.93506 12.6539L5.88954 12.6994L5.84399 12.7449L5.79838 12.7905L5.75274 12.8362L5.70705 12.8819L5.66131 12.9276L5.61553 12.9734L5.56971 13.0192L5.52385 13.0651L5.47794 13.111L5.43198 13.1569L5.38599 13.2029L5.33995 13.2489L5.29387 13.295L5.24774 13.3412L5.20158 13.3873L5.15537 13.4335L5.10912 13.4798L5.06283 13.5261L5.01649 13.5724L4.97012 13.6188L4.9237 13.6652L4.87724 13.7116L4.83074 13.7581L4.7842 13.8047L4.73762 13.8513L4.691 13.8979L4.64434 13.9445L4.59763 13.9912L4.55089 14.038L4.50411 14.0848L4.45728 14.1316L4.41042 14.1784L4.36352 14.2253L4.31658 14.2723L4.2696 14.3193L4.22258 14.3663L4.17552 14.4133L4.12843 14.4604L4.08129 14.5076L4.03412 14.5547L3.98691 14.6019L3.93966 14.6492L3.89237 14.6965L3.84505 14.7438L3.79769 14.7911L3.75029 14.8385L3.70285 14.886L3.65538 14.9335L3.60787 14.981L3.56032 15.0285L3.51274 15.0761L3.46512 15.1237L3.41747 15.1714L3.36978 15.219L3.32205 15.2668L3.27429 15.3145L3.22649 15.3623L3.17866 15.4102L3.13079 15.458L3.08288 15.5059L3.03495 15.5539L2.98697 15.6018L2.93897 15.6498L2.89093 15.6979L2.84285 15.746L2.79474 15.7941L2.7466 15.8422L2.69842 15.8904L2.65021 15.9386L2.60197 15.9868L2.55369 16.0351L2.50538 16.0834L2.45704 16.1317L2.40866 16.1801L2.36026 16.2285L2.31182 16.277L2.26335 16.3254L2.21484 16.3739L2.16631 16.4225L2.11774 16.471L2.06914 16.5196L2.02051 16.5683L1.97185 16.6169L1.92316 16.6656L1.87443 16.7143L1.82568 16.7631L1.7769 16.8119L1.72808 16.8607L1.67924 16.9095L1.63036 16.9584L1.58146 17.0073L1.53253 17.0562L1.48356 17.1052L1.43457 17.1542L1.38555 17.2032L1.3365 17.2522L1.28742 17.3013L1.23831 17.3504L1.18918 17.3996L1.14001 17.4487L1.09082 17.4979L1.0416 17.5471L0.992349 17.5964L0.943073 17.6457L0.89377 17.695L0.844439 17.7443L0.795081 17.7936L0.745696 17.843L0.696284 17.8924L0.646845 17.9419L0.597381 17.9913L0.547889 18.0408L0.498372 18.0903L0.448829 18.1399L0.399259 18.1894L0.349665 18.239L0.300044 18.2887L0.250399 18.3383L0.200728 18.388L0.151033 18.4377L0.101312 18.4874L0.051567 18.5371L0.00179747 18.5869L1.41598 20.0011Z" fill="#00EFD4"/>
</svg>
