<svg width="21" height="16" viewBox="0 0 21 16" fill="none" xmlns="http://www.w3.org/2000/svg">
<path fill-rule="evenodd" clip-rule="evenodd" d="M14.9922 2.04393C14.9922 3.04393 14.1588 4.04395 12.9922 4.04395C11.9922 4.04395 10.9922 3.21059 10.9922 2.04393C10.9922 1.04394 11.8255 0.0439453 12.9922 0.0439453C14.1588 0.210611 14.9922 1.04394 14.9922 2.04393Z" fill="#00EFD4"/>
<path fill-rule="evenodd" clip-rule="evenodd" d="M9.41406 2.04393C9.41406 3.04393 8.58071 4.04395 7.41404 4.04395C6.41403 4.04395 5.41406 3.21059 5.41406 2.04393C5.41406 1.04394 6.24737 0.0439453 7.41404 0.0439453C8.58071 0.210611 9.41406 1.04394 9.41406 2.04393Z" fill="#00EFD4"/>
<path fill-rule="evenodd" clip-rule="evenodd" d="M4 2.04393C4 3.04393 3.13043 4.04395 2.08696 4.04395C1.04349 4.04395 0 3.21059 0 2.04393C0 1.04394 0.86958 0.0439453 2.08696 0.0439453C3.13043 0.210611 4 1.04394 4 2.04393Z" fill="#00EFD4"/>
<path fill-rule="evenodd" clip-rule="evenodd" d="M20.8984 13.3643C20.8984 14.3643 20.0288 15.3643 18.8114 15.3643C17.768 15.3643 16.8984 14.5309 16.8984 13.3643C16.8984 12.3643 17.768 11.3643 18.8114 11.3643C20.0288 11.3643 20.8984 12.1976 20.8984 13.3643Z" fill="#00EFD4"/>
<path fill-rule="evenodd" clip-rule="evenodd" d="M20.8984 7.78612C20.8984 8.78612 20.0288 9.78613 18.8114 9.78613C17.768 9.78613 16.8984 8.95278 16.8984 7.78612C16.8984 6.78612 17.768 5.78613 18.8114 5.78613C20.0288 5.78613 20.8984 6.61946 20.8984 7.78612Z" fill="#00EFD4"/>
<path fill-rule="evenodd" clip-rule="evenodd" d="M14.9922 7.78612C14.9922 8.78612 14.1588 9.78613 12.9922 9.78613C11.9922 9.78613 10.9922 8.95278 10.9922 7.78612C10.9922 6.78612 11.8255 5.78613 12.9922 5.78613C14.1588 5.78613 14.9922 6.61946 14.9922 7.78612Z" fill="#00EFD4"/>
<path fill-rule="evenodd" clip-rule="evenodd" d="M9.41406 7.78612C9.41406 8.78612 8.58071 9.78613 7.41404 9.78613C6.41403 9.78613 5.41406 8.95278 5.41406 7.78612C5.41406 6.78612 6.24737 5.78613 7.41404 5.78613C8.58071 5.78613 9.41406 6.61946 9.41406 7.78612Z" fill="#00EFD4"/>
</svg>
