<svg width="58" height="47" viewBox="0 0 58 47" fill="none" xmlns="http://www.w3.org/2000/svg">
<path fill-rule="evenodd" clip-rule="evenodd" d="M4 26.0439C4 27.0439 3.1667 28.0439 2.00003 28.0439C1.00002 28.0439 0 27.2106 0 26.0439C0 25.0439 0.833356 24.0439 2.00003 24.0439C3.1667 24.2106 4 25.0439 4 26.0439Z" fill="#00EFD4"/>
<path fill-rule="evenodd" clip-rule="evenodd" d="M10 26.0439C10 27.0439 9.1667 28.0439 8.00003 28.0439C7.00002 28.0439 6 27.2106 6 26.0439C6 25.0439 6.83336 24.0439 8.00003 24.0439C9.1667 24.2106 10 25.0439 10 26.0439Z" fill="#00EFD4"/>
<path fill-rule="evenodd" clip-rule="evenodd" d="M10 32.0439C10 33.0439 9.1667 34.0439 8.00003 34.0439C7.00002 34.0439 6 33.2106 6 32.0439C6 31.0439 6.83336 30.0439 8.00003 30.0439C9.1667 30.2106 10 31.0439 10 32.0439Z" fill="#00EFD4"/>
<path fill-rule="evenodd" clip-rule="evenodd" d="M16 32.0439C16 33.0439 15.1667 34.0439 14 34.0439C13 34.0439 12 33.2106 12 32.0439C12 31.0439 12.8334 30.0439 14 30.0439C15.1667 30.2106 16 31.0439 16 32.0439Z" fill="#00EFD4"/>
<path fill-rule="evenodd" clip-rule="evenodd" d="M22 32.0439C22 33.0439 21.1667 34.0439 20 34.0439C19 34.0439 18 33.2106 18 32.0439C18 31.0439 18.8334 30.0439 20 30.0439C21.1667 30.2106 22 31.0439 22 32.0439Z" fill="#00EFD4"/>
<path fill-rule="evenodd" clip-rule="evenodd" d="M28 32.0439C28 33.0439 27.1667 34.0439 26 34.0439C25 34.0439 24 33.2106 24 32.0439C24 31.0439 24.8334 30.0439 26 30.0439C27.1667 30.2106 28 31.0439 28 32.0439Z" fill="#00EFD4"/>
<path fill-rule="evenodd" clip-rule="evenodd" d="M34 32.0439C34 33.0439 33.1667 34.0439 32 34.0439C31 34.0439 30 33.2106 30 32.0439C30 31.0439 30.8334 30.0439 32 30.0439C33.1667 30.2106 34 31.0439 34 32.0439Z" fill="#00EFD4"/>
<path fill-rule="evenodd" clip-rule="evenodd" d="M22 26.0439C22 27.0439 21.1667 28.0439 20 28.0439C19 28.0439 18 27.2106 18 26.0439C18 25.0439 18.8334 24.0439 20 24.0439C21.1667 24.2106 22 25.0439 22 26.0439Z" fill="#00EFD4"/>
<path fill-rule="evenodd" clip-rule="evenodd" d="M28 20.0439C28 21.0439 27.1667 22.0439 26 22.0439C25 22.0439 24 21.2106 24 20.0439C24 19.0439 24.8334 18.0439 26 18.0439C27.1667 18.2106 28 19.0439 28 20.0439Z" fill="#00EFD4"/>
<path fill-rule="evenodd" clip-rule="evenodd" d="M34 14.0439C34 15.0439 33.1667 16.0439 32 16.0439C31 16.0439 30 15.2106 30 14.0439C30 13.0439 30.8334 12.0439 32 12.0439C33.1667 12.2106 34 13.0439 34 14.0439Z" fill="#00EFD4"/>
<path fill-rule="evenodd" clip-rule="evenodd" d="M34 8.04395C34 9.04395 33.1667 10.0439 32 10.0439C31 10.0439 30 9.21061 30 8.04395C30 7.04394 30.8334 6.04395 32 6.04395C33.1667 6.21061 34 7.04394 34 8.04395Z" fill="#00EFD4"/>
<path fill-rule="evenodd" clip-rule="evenodd" d="M28 8.04395C28 9.04395 27.1667 10.0439 26 10.0439C25 10.0439 24 9.21061 24 8.04395C24 7.04394 24.8334 6.04395 26 6.04395C27.1667 6.21061 28 7.04394 28 8.04395Z" fill="#00EFD4"/>
<path fill-rule="evenodd" clip-rule="evenodd" d="M28 26.0439C28 27.0439 27.1667 28.0439 26 28.0439C25 28.0439 24 27.2106 24 26.0439C24 25.0439 24.8334 24.0439 26 24.0439C27.1667 24.2106 28 25.0439 28 26.0439Z" fill="#00EFD4"/>
<path fill-rule="evenodd" clip-rule="evenodd" d="M34 20.0439C34 21.0439 33.1667 22.0439 32 22.0439C31 22.0439 30 21.2106 30 20.0439C30 19.0439 30.8334 18.0439 32 18.0439C33.1667 18.2106 34 19.0439 34 20.0439Z" fill="#00EFD4"/>
<path fill-rule="evenodd" clip-rule="evenodd" d="M40 14.0439C40 15.0439 39.1667 16.0439 38 16.0439C37 16.0439 36 15.2106 36 14.0439C36 13.0439 36.8334 12.0439 38 12.0439C39.1667 12.2106 40 13.0439 40 14.0439Z" fill="#00EFD4"/>
<path fill-rule="evenodd" clip-rule="evenodd" d="M40 8.04395C40 9.04395 39.1667 10.0439 38 10.0439C37 10.0439 36 9.21061 36 8.04395C36 7.04394 36.8334 6.04395 38 6.04395C39.1667 6.21061 40 7.04394 40 8.04395Z" fill="#00EFD4"/>
<path fill-rule="evenodd" clip-rule="evenodd" d="M40 2.04395C40 3.04395 39.1667 4.04395 38 4.04395C37 4.04395 36 3.21061 36 2.04395C36 1.04394 36.8334 0.0439453 38 0.0439453C39.1667 0.210612 40 1.04394 40 2.04395Z" fill="#00EFD4"/>
<path fill-rule="evenodd" clip-rule="evenodd" d="M34 26.0439C34 27.0439 33.1667 28.0439 32 28.0439C31 28.0439 30 27.2106 30 26.0439C30 25.0439 30.8334 24.0439 32 24.0439C33.1667 24.2106 34 25.0439 34 26.0439Z" fill="#00EFD4"/>
<path fill-rule="evenodd" clip-rule="evenodd" d="M40 20.0439C40 21.0439 39.1667 22.0439 38 22.0439C37 22.0439 36 21.2106 36 20.0439C36 19.0439 36.8334 18.0439 38 18.0439C39.1667 18.2106 40 19.0439 40 20.0439Z" fill="#00EFD4"/>
<path fill-rule="evenodd" clip-rule="evenodd" d="M46 14.0439C46 15.0439 45.1667 16.0439 44 16.0439C43 16.0439 42 15.2106 42 14.0439C42 13.0439 42.8334 12.0439 44 12.0439C45.1667 12.2106 46 13.0439 46 14.0439Z" fill="#00EFD4"/>
<path fill-rule="evenodd" clip-rule="evenodd" d="M46 8.04395C46 9.04395 45.1667 10.0439 44 10.0439C43 10.0439 42 9.21061 42 8.04395C42 7.04394 42.8334 6.04395 44 6.04395C45.1667 6.21061 46 7.04394 46 8.04395Z" fill="#00EFD4"/>
<path fill-rule="evenodd" clip-rule="evenodd" d="M46 2.04395C46 3.04395 45.1667 4.04395 44 4.04395C43 4.04395 42 3.21061 42 2.04395C42 1.04394 42.8334 0.0439453 44 0.0439453C45.1667 0.210612 46 1.04394 46 2.04395Z" fill="#00EFD4"/>
<path fill-rule="evenodd" clip-rule="evenodd" d="M40 26.0439C40 27.0439 39.1667 28.0439 38 28.0439C37 28.0439 36 27.2106 36 26.0439C36 25.0439 36.8334 24.0439 38 24.0439C39.1667 24.2106 40 25.0439 40 26.0439Z" fill="#00EFD4"/>
<path fill-rule="evenodd" clip-rule="evenodd" d="M46 20.0439C46 21.0439 45.1667 22.0439 44 22.0439C43 22.0439 42 21.2106 42 20.0439C42 19.0439 42.8334 18.0439 44 18.0439C45.1667 18.2106 46 19.0439 46 20.0439Z" fill="#00EFD4"/>
<path fill-rule="evenodd" clip-rule="evenodd" d="M52 14.0439C52 15.0439 51.1667 16.0439 50 16.0439C49 16.0439 48 15.2106 48 14.0439C48 13.0439 48.8334 12.0439 50 12.0439C51.1667 12.2106 52 13.0439 52 14.0439Z" fill="#00EFD4"/>
<path fill-rule="evenodd" clip-rule="evenodd" d="M52 8.04395C52 9.04395 51.1667 10.0439 50 10.0439C49 10.0439 48 9.21061 48 8.04395C48 7.04394 48.8334 6.04395 50 6.04395C51.1667 6.21061 52 7.04394 52 8.04395Z" fill="#00EFD4"/>
<path fill-rule="evenodd" clip-rule="evenodd" d="M52 2.04395C52 3.04395 51.1667 4.04395 50 4.04395C49 4.04395 48 3.21061 48 2.04395C48 1.04394 48.8334 0.0439453 50 0.0439453C51.1667 0.210612 52 1.04394 52 2.04395Z" fill="#00EFD4"/>
<path fill-rule="evenodd" clip-rule="evenodd" d="M58 8.04395C58 9.04395 57.1667 10.0439 56 10.0439C55 10.0439 54 9.21061 54 8.04395C54 7.04394 54.8334 6.04395 56 6.04395C57.1667 6.21061 58 7.04394 58 8.04395Z" fill="#00EFD4"/>
<path fill-rule="evenodd" clip-rule="evenodd" d="M16 38.0439C16 39.0439 15.1667 40.0439 14 40.0439C13 40.0439 12 39.2106 12 38.0439C12 37.0439 12.8334 36.0439 14 36.0439C15.1667 36.2106 16 37.0439 16 38.0439Z" fill="#00EFD4"/>
<path fill-rule="evenodd" clip-rule="evenodd" d="M10 38.0439C10 39.0439 9.1667 40.0439 8.00003 40.0439C7.00002 40.0439 6 39.2106 6 38.0439C6 37.0439 6.83336 36.0439 8.00003 36.0439C9.1667 36.2106 10 37.0439 10 38.0439Z" fill="#00EFD4"/>
<path fill-rule="evenodd" clip-rule="evenodd" d="M22 38.0439C22 39.0439 21.1667 40.0439 20 40.0439C19 40.0439 18 39.2106 18 38.0439C18 37.0439 18.8334 36.0439 20 36.0439C21.1667 36.2106 22 37.0439 22 38.0439Z" fill="#00EFD4"/>
<path fill-rule="evenodd" clip-rule="evenodd" d="M28 38.0439C28 39.0439 27.1667 40.0439 26 40.0439C25 40.0439 24 39.2106 24 38.0439C24 37.0439 24.8334 36.0439 26 36.0439C27.1667 36.2106 28 37.0439 28 38.0439Z" fill="#00EFD4"/>
<path fill-rule="evenodd" clip-rule="evenodd" d="M22 44.0439C22 45.0439 21.1667 46.0439 20 46.0439C19 46.0439 18 45.2106 18 44.0439C18 43.0439 18.8334 42.0439 20 42.0439C21.1667 42.2106 22 43.0439 22 44.0439Z" fill="#00EFD4"/>
<path fill-rule="evenodd" clip-rule="evenodd" d="M28 44.0439C28 45.0439 27.1667 46.0439 26 46.0439C25 46.0439 24 45.2106 24 44.0439C24 43.0439 24.8334 42.0439 26 42.0439C27.1667 42.2106 28 43.0439 28 44.0439Z" fill="#00EFD4"/>
<path fill-rule="evenodd" clip-rule="evenodd" d="M34 44.0439C34 45.0439 33.1667 46.0439 32 46.0439C31 46.0439 30 45.2106 30 44.0439C30 43.0439 30.8334 42.0439 32 42.0439C33.1667 42.2106 34 43.0439 34 44.0439Z" fill="#00EFD4"/>
</svg>
