<svg width="27" height="27" viewBox="0 0 27 27" fill="none" xmlns="http://www.w3.org/2000/svg">
<path fill-rule="evenodd" clip-rule="evenodd" d="M20.897 13.1987C20.897 14.1987 20.0637 15.1987 18.897 15.1987C17.7303 15.1987 16.897 14.3654 16.897 13.1987C16.897 12.1987 17.7303 11.1987 18.897 11.1987C20.0637 11.1987 20.897 12.1987 20.897 13.1987Z" fill="#00EFD4"/>
<path fill-rule="evenodd" clip-rule="evenodd" d="M15.4834 13.1987C15.4834 14.1987 14.6139 15.1987 13.3965 15.1987C12.353 15.1987 11.4834 14.3654 11.4834 13.1987C11.4834 12.1987 12.353 11.1987 13.3965 11.1987C14.6139 11.3654 15.4834 12.1987 15.4834 13.1987Z" fill="#00EFD4"/>
<path fill-rule="evenodd" clip-rule="evenodd" d="M20.897 7.62061C20.897 8.62061 20.0637 9.62061 18.897 9.62061C17.7303 9.62061 16.897 8.78728 16.897 7.62061C16.897 6.6206 17.7303 5.62061 18.897 5.62061C20.0637 5.62061 20.897 6.6206 20.897 7.62061Z" fill="#00EFD4"/>
<path fill-rule="evenodd" clip-rule="evenodd" d="M15.4834 2.04393C15.4834 3.04393 14.6139 4.04395 13.3965 4.04395C12.353 4.04395 11.4834 3.21059 11.4834 2.04393C11.4834 1.04394 12.353 0.0439453 13.3965 0.0439453C14.6139 0.210611 15.4834 1.04394 15.4834 2.04393Z" fill="#00EFD4"/>
<path fill-rule="evenodd" clip-rule="evenodd" d="M26.6387 2.04393C26.6387 3.04393 25.7691 4.04395 24.5517 4.04395C23.5082 4.04395 22.6387 3.21059 22.6387 2.04393C22.6387 1.04394 23.5082 0.0439453 24.5517 0.0439453C25.7691 0.210611 26.6387 1.04394 26.6387 2.04393Z" fill="#00EFD4"/>
<path fill-rule="evenodd" clip-rule="evenodd" d="M4 24.5156C4 25.5156 3.16664 26.5156 1.99997 26.5156C0.999972 26.5156 0 25.6823 0 24.5156C0 23.5156 0.833305 22.5156 1.99997 22.5156C3.16664 22.5156 4 23.349 4 24.5156Z" fill="#00EFD4"/>
<path fill-rule="evenodd" clip-rule="evenodd" d="M20.897 18.9409C20.897 19.9409 20.0637 20.9409 18.897 20.9409C17.7303 20.9409 16.897 20.1076 16.897 18.9409C16.897 17.9409 17.7303 16.9409 18.897 16.9409C20.0637 16.9409 20.897 17.7742 20.897 18.9409Z" fill="#00EFD4"/>
<path fill-rule="evenodd" clip-rule="evenodd" d="M15.4834 18.9409C15.4834 19.9409 14.6139 20.9409 13.3965 20.9409C12.353 20.9409 11.4834 20.1076 11.4834 18.9409C11.4834 17.9409 12.353 16.9409 13.3965 16.9409C14.6139 16.9409 15.4834 17.7742 15.4834 18.9409Z" fill="#00EFD4"/>
<path fill-rule="evenodd" clip-rule="evenodd" d="M26.6387 18.9409C26.6387 19.9409 25.7691 20.9409 24.5517 20.9409C23.5082 20.9409 22.6387 20.1076 22.6387 18.9409C22.6387 17.9409 23.5082 16.9409 24.5517 16.9409C25.7691 16.9409 26.6387 17.7742 26.6387 18.9409Z" fill="#00EFD4"/>
<path fill-rule="evenodd" clip-rule="evenodd" d="M9.74121 18.9409C9.74121 19.9409 8.87163 20.9409 7.82815 20.9409C6.78466 20.9409 5.74121 20.1076 5.74121 18.9409C5.74121 17.9409 6.61075 16.9409 7.82815 16.9409C8.87163 16.9409 9.74121 17.7742 9.74121 18.9409Z" fill="#00EFD4"/>
</svg>
