<svg width="60" height="38" viewBox="0 0 60 38" fill="none" xmlns="http://www.w3.org/2000/svg">
<path fill-rule="evenodd" clip-rule="evenodd" d="M20.8906 18.9365C20.8906 19.9365 20.0211 20.9365 18.8037 20.9365C17.7602 20.9365 16.8906 20.1032 16.8906 18.9365C16.8906 17.9365 17.7602 16.9365 18.8037 16.9365C20.0211 16.9365 20.8906 17.7699 20.8906 18.9365Z" fill="#00EFD4"/>
<path fill-rule="evenodd" clip-rule="evenodd" d="M26.4766 18.9365C26.4766 19.9365 25.607 20.9365 24.3896 20.9365C23.3461 20.9365 22.4766 20.1032 22.4766 18.9365C22.4766 17.9365 23.3461 16.9365 24.3896 16.9365C25.607 16.9365 26.4766 17.7699 26.4766 18.9365Z" fill="#00EFD4"/>
<path fill-rule="evenodd" clip-rule="evenodd" d="M15.1562 18.9365C15.1562 19.9365 14.3229 20.9365 13.1563 20.9365C12.1563 20.9365 11.1562 20.1032 11.1562 18.9365C11.1562 17.9365 11.9896 16.9365 13.1563 16.9365C14.3229 16.9365 15.1562 17.7699 15.1562 18.9365Z" fill="#00EFD4"/>
<path fill-rule="evenodd" clip-rule="evenodd" d="M9.57812 18.9365C9.57812 19.9365 8.7448 20.9365 7.57813 20.9365C6.57813 20.9365 5.57812 20.1032 5.57812 18.9365C5.57812 17.9365 6.41147 16.9365 7.57813 16.9365C8.7448 16.9365 9.57812 17.7699 9.57812 18.9365Z" fill="#00EFD4"/>
<path fill-rule="evenodd" clip-rule="evenodd" d="M4 18.9365C4 19.9365 3.16667 20.9365 2 20.9365C0.999997 20.9365 0 20.1032 0 18.9365C0 17.9365 0.83333 16.9365 2 16.9365C3.16667 16.9365 4 17.7699 4 18.9365Z" fill="#00EFD4"/>
<path fill-rule="evenodd" clip-rule="evenodd" d="M37.625 18.9365C37.625 19.9365 36.7917 20.9365 35.625 20.9365C34.625 20.9365 33.625 20.1032 33.625 18.9365C33.625 17.9365 34.4583 16.9365 35.625 16.9365C36.7917 16.9365 37.625 17.7699 37.625 18.9365Z" fill="#00EFD4"/>
<path fill-rule="evenodd" clip-rule="evenodd" d="M43.2109 18.9365C43.2109 19.9365 42.3776 20.9365 41.2109 20.9365C40.2109 20.9365 39.2109 20.1032 39.2109 18.9365C39.2109 17.9365 40.0443 16.9365 41.2109 16.9365C42.3776 16.9365 43.2109 17.7699 43.2109 18.9365Z" fill="#00EFD4"/>
<path fill-rule="evenodd" clip-rule="evenodd" d="M32.2188 18.9365C32.2188 19.9365 31.3492 20.9365 30.1318 20.9365C29.0883 20.9365 28.2188 20.1032 28.2188 18.9365C28.2188 17.9365 29.0883 16.9365 30.1318 16.9365C31.1753 16.9365 32.2188 17.7699 32.2188 18.9365Z" fill="#00EFD4"/>
<path fill-rule="evenodd" clip-rule="evenodd" d="M54.3594 18.9365C54.3594 19.9365 53.526 20.9365 52.3594 20.9365C51.3594 20.9365 50.3594 20.1032 50.3594 18.9365C50.3594 17.9365 51.1927 16.9365 52.3594 16.9365C53.526 16.9365 54.3594 17.7699 54.3594 18.9365Z" fill="#00EFD4"/>
<path fill-rule="evenodd" clip-rule="evenodd" d="M48.9531 18.9365C48.9531 19.9365 48.0836 20.9365 47.0401 20.9365C45.9966 20.9365 44.9531 20.1032 44.9531 18.9365C44.9531 17.9365 45.8227 16.9365 47.0401 16.9365C48.0836 16.9365 48.9531 17.7699 48.9531 18.9365Z" fill="#00EFD4"/>
<path fill-rule="evenodd" clip-rule="evenodd" d="M20.8906 13.3604C20.8906 14.3604 20.0211 15.3604 18.8037 15.3604C17.7602 15.3604 16.8906 14.527 16.8906 13.3604C16.8906 12.3604 17.7602 11.3604 18.8037 11.3604C20.0211 11.3604 20.8906 12.1937 20.8906 13.3604Z" fill="#00EFD4"/>
<path fill-rule="evenodd" clip-rule="evenodd" d="M26.4766 13.3604C26.4766 14.3604 25.607 15.3604 24.3896 15.3604C23.3461 15.3604 22.4766 14.527 22.4766 13.3604C22.4766 12.3604 23.3461 11.3604 24.3896 11.3604C25.607 11.3604 26.4766 12.1937 26.4766 13.3604Z" fill="#00EFD4"/>
<path fill-rule="evenodd" clip-rule="evenodd" d="M15.1562 13.3604C15.1562 14.3604 14.3229 15.3604 13.1563 15.3604C12.1563 15.3604 11.1562 14.527 11.1562 13.3604C11.1562 12.3604 11.9896 11.3604 13.1563 11.3604C14.3229 11.3604 15.1562 12.1937 15.1562 13.3604Z" fill="#00EFD4"/>
<path fill-rule="evenodd" clip-rule="evenodd" d="M9.57812 13.3604C9.57812 14.3604 8.7448 15.3604 7.57813 15.3604C6.57813 15.3604 5.57812 14.527 5.57812 13.3604C5.57812 12.3604 6.41147 11.3604 7.57813 11.3604C8.7448 11.3604 9.57812 12.1937 9.57812 13.3604Z" fill="#00EFD4"/>
<path fill-rule="evenodd" clip-rule="evenodd" d="M4 13.3604C4 14.3604 3.16667 15.3604 2 15.3604C0.999997 15.3604 0 14.527 0 13.3604C0 12.3604 0.83333 11.3604 2 11.3604C3.16667 11.3604 4 12.1937 4 13.3604Z" fill="#00EFD4"/>
<path fill-rule="evenodd" clip-rule="evenodd" d="M37.625 13.3604C37.625 14.3604 36.7917 15.3604 35.625 15.3604C34.625 15.3604 33.625 14.527 33.625 13.3604C33.625 12.3604 34.4583 11.3604 35.625 11.3604C36.7917 11.3604 37.625 12.1937 37.625 13.3604Z" fill="#00EFD4"/>
<path fill-rule="evenodd" clip-rule="evenodd" d="M43.2109 13.3604C43.2109 14.3604 42.3776 15.3604 41.2109 15.3604C40.2109 15.3604 39.2109 14.527 39.2109 13.3604C39.2109 12.3604 40.0443 11.3604 41.2109 11.3604C42.3776 11.3604 43.2109 12.1937 43.2109 13.3604Z" fill="#00EFD4"/>
<path fill-rule="evenodd" clip-rule="evenodd" d="M32.2188 13.3604C32.2188 14.3604 31.3492 15.3604 30.1318 15.3604C29.0883 15.3604 28.2188 14.527 28.2188 13.3604C28.2188 12.3604 29.0883 11.3604 30.1318 11.3604C31.1753 11.3604 32.2188 12.1937 32.2188 13.3604Z" fill="#00EFD4"/>
<path fill-rule="evenodd" clip-rule="evenodd" d="M54.3594 13.3604C54.3594 14.3604 53.526 15.3604 52.3594 15.3604C51.3594 15.3604 50.3594 14.527 50.3594 13.3604C50.3594 12.3604 51.1927 11.3604 52.3594 11.3604C53.526 11.3604 54.3594 12.1937 54.3594 13.3604Z" fill="#00EFD4"/>
<path fill-rule="evenodd" clip-rule="evenodd" d="M48.9531 13.3604C48.9531 14.3604 48.0836 15.3604 47.0401 15.3604C45.9966 15.3604 44.9531 14.527 44.9531 13.3604C44.9531 12.3604 45.8227 11.3604 47.0401 11.3604C48.0836 11.3604 48.9531 12.1937 48.9531 13.3604Z" fill="#00EFD4"/>
<path fill-rule="evenodd" clip-rule="evenodd" d="M20.8906 7.61818C20.8906 8.61817 20.0211 9.61816 18.8037 9.61816C17.7602 9.61816 16.8906 8.78484 16.8906 7.61818C16.8906 6.61818 17.7602 5.61816 18.8037 5.61816C20.0211 5.78483 20.8906 6.61818 20.8906 7.61818Z" fill="#00EFD4"/>
<path fill-rule="evenodd" clip-rule="evenodd" d="M26.4766 7.61818C26.4766 8.61817 25.607 9.61816 24.3896 9.61816C23.3461 9.61816 22.4766 8.78484 22.4766 7.61818C22.4766 6.61818 23.3461 5.61816 24.3896 5.61816C25.607 5.78483 26.4766 6.61818 26.4766 7.61818Z" fill="#00EFD4"/>
<path fill-rule="evenodd" clip-rule="evenodd" d="M15.1562 7.61818C15.1562 8.61817 14.3229 9.61816 13.1563 9.61816C12.1563 9.61816 11.1562 8.78484 11.1562 7.61818C11.1562 6.61818 11.9896 5.61816 13.1563 5.61816C14.3229 5.78483 15.1562 6.61818 15.1562 7.61818Z" fill="#00EFD4"/>
<path fill-rule="evenodd" clip-rule="evenodd" d="M9.57812 7.61818C9.57812 8.61817 8.7448 9.61816 7.57813 9.61816C6.57813 9.61816 5.57812 8.78484 5.57812 7.61818C5.57812 6.61818 6.41147 5.61816 7.57813 5.61816C8.7448 5.78483 9.57812 6.61818 9.57812 7.61818Z" fill="#00EFD4"/>
<path fill-rule="evenodd" clip-rule="evenodd" d="M4 7.61818C4 8.61817 3.16667 9.61816 2 9.61816C0.999997 9.61816 0 8.78484 0 7.61818C0 6.61818 0.83333 5.61816 2 5.61816C3.16667 5.78483 4 6.61818 4 7.61818Z" fill="#00EFD4"/>
<path fill-rule="evenodd" clip-rule="evenodd" d="M37.625 7.61818C37.625 8.61817 36.7917 9.61816 35.625 9.61816C34.625 9.61816 33.625 8.78484 33.625 7.61818C33.625 6.61818 34.4583 5.61816 35.625 5.61816C36.7917 5.78483 37.625 6.61818 37.625 7.61818Z" fill="#00EFD4"/>
<path fill-rule="evenodd" clip-rule="evenodd" d="M43.2109 7.61818C43.2109 8.61817 42.3776 9.61816 41.2109 9.61816C40.2109 9.61816 39.2109 8.78484 39.2109 7.61818C39.2109 6.61818 40.0443 5.61816 41.2109 5.61816C42.3776 5.78483 43.2109 6.61818 43.2109 7.61818Z" fill="#00EFD4"/>
<path fill-rule="evenodd" clip-rule="evenodd" d="M32.2188 7.61818C32.2188 8.61817 31.3492 9.61816 30.1318 9.61816C29.0883 9.61816 28.2188 8.78484 28.2188 7.61818C28.2188 6.61818 29.0883 5.61816 30.1318 5.61816C31.1753 5.78483 32.2188 6.61818 32.2188 7.61818Z" fill="#00EFD4"/>
<path fill-rule="evenodd" clip-rule="evenodd" d="M48.9531 7.61818C48.9531 8.61817 48.0836 9.61816 47.0401 9.61816C45.9966 9.61816 44.9531 8.78484 44.9531 7.61818C44.9531 6.61818 45.8227 5.61816 47.0401 5.61816C48.0836 5.78483 48.9531 6.61818 48.9531 7.61818Z" fill="#00EFD4"/>
<path fill-rule="evenodd" clip-rule="evenodd" d="M20.8906 35.6748C20.8906 36.6748 20.0211 37.6748 18.8037 37.6748C17.7602 37.6748 16.8906 36.8415 16.8906 35.6748C16.8906 34.6748 17.7602 33.6748 18.8037 33.6748C20.0211 33.8415 20.8906 34.6748 20.8906 35.6748Z" fill="#00EFD4"/>
<path fill-rule="evenodd" clip-rule="evenodd" d="M26.4766 35.6748C26.4766 36.6748 25.607 37.6748 24.3896 37.6748C23.3461 37.6748 22.4766 36.8415 22.4766 35.6748C22.4766 34.6748 23.3461 33.6748 24.3896 33.6748C25.607 33.8415 26.4766 34.6748 26.4766 35.6748Z" fill="#00EFD4"/>
<path fill-rule="evenodd" clip-rule="evenodd" d="M15.1562 35.6748C15.1562 36.6748 14.3229 37.6748 13.1563 37.6748C12.1563 37.6748 11.1562 36.8415 11.1562 35.6748C11.1562 34.6748 11.9896 33.6748 13.1563 33.6748C14.3229 33.8415 15.1562 34.6748 15.1562 35.6748Z" fill="#00EFD4"/>
<path fill-rule="evenodd" clip-rule="evenodd" d="M9.57812 35.6748C9.57812 36.6748 8.7448 37.6748 7.57813 37.6748C6.57813 37.6748 5.57812 36.8415 5.57812 35.6748C5.57812 34.6748 6.41147 33.6748 7.57813 33.6748C8.7448 33.8415 9.57812 34.6748 9.57812 35.6748Z" fill="#00EFD4"/>
<path fill-rule="evenodd" clip-rule="evenodd" d="M4 35.6748C4 36.6748 3.16667 37.6748 2 37.6748C0.999997 37.6748 0 36.8415 0 35.6748C0 34.6748 0.83333 33.6748 2 33.6748C3.16667 33.8415 4 34.6748 4 35.6748Z" fill="#00EFD4"/>
<path fill-rule="evenodd" clip-rule="evenodd" d="M37.625 35.6748C37.625 36.6748 36.7917 37.6748 35.625 37.6748C34.625 37.6748 33.625 36.8415 33.625 35.6748C33.625 34.6748 34.4583 33.6748 35.625 33.6748C36.7917 33.8415 37.625 34.6748 37.625 35.6748Z" fill="#00EFD4"/>
<path fill-rule="evenodd" clip-rule="evenodd" d="M43.2109 35.6748C43.2109 36.6748 42.3776 37.6748 41.2109 37.6748C40.2109 37.6748 39.2109 36.8415 39.2109 35.6748C39.2109 34.6748 40.0443 33.6748 41.2109 33.6748C42.3776 33.8415 43.2109 34.6748 43.2109 35.6748Z" fill="#00EFD4"/>
<path fill-rule="evenodd" clip-rule="evenodd" d="M32.2188 35.6748C32.2188 36.6748 31.3492 37.6748 30.1318 37.6748C29.0883 37.6748 28.2188 36.8415 28.2188 35.6748C28.2188 34.6748 29.0883 33.6748 30.1318 33.6748C31.1753 33.8415 32.2188 34.6748 32.2188 35.6748Z" fill="#00EFD4"/>
<path fill-rule="evenodd" clip-rule="evenodd" d="M48.9531 35.6748C48.9531 36.6748 48.0836 37.6748 47.0401 37.6748C45.9966 37.6748 44.9531 36.8415 44.9531 35.6748C44.9531 34.6748 45.8227 33.6748 47.0401 33.6748C48.0836 33.8415 48.9531 34.6748 48.9531 35.6748Z" fill="#00EFD4"/>
<path fill-rule="evenodd" clip-rule="evenodd" d="M20.8906 30.0967C20.8906 31.0967 20.0211 32.0967 18.8037 32.0967C17.7602 32.0967 16.8906 31.2633 16.8906 30.0967C16.8906 29.0967 17.7602 28.0967 18.8037 28.0967C20.0211 28.0967 20.8906 29.0967 20.8906 30.0967Z" fill="#00EFD4"/>
<path fill-rule="evenodd" clip-rule="evenodd" d="M26.4766 30.0967C26.4766 31.0967 25.607 32.0967 24.3896 32.0967C23.3461 32.0967 22.4766 31.2633 22.4766 30.0967C22.4766 29.0967 23.3461 28.0967 24.3896 28.0967C25.607 28.0967 26.4766 29.0967 26.4766 30.0967Z" fill="#00EFD4"/>
<path fill-rule="evenodd" clip-rule="evenodd" d="M15.1562 30.0967C15.1562 31.0967 14.3229 32.0967 13.1563 32.0967C12.1563 32.0967 11.1562 31.2633 11.1562 30.0967C11.1562 29.0967 11.9896 28.0967 13.1563 28.0967C14.3229 28.0967 15.1562 29.0967 15.1562 30.0967Z" fill="#00EFD4"/>
<path fill-rule="evenodd" clip-rule="evenodd" d="M9.57812 30.0967C9.57812 31.0967 8.7448 32.0967 7.57813 32.0967C6.57813 32.0967 5.57812 31.2633 5.57812 30.0967C5.57812 29.0967 6.41147 28.0967 7.57813 28.0967C8.7448 28.0967 9.57812 29.0967 9.57812 30.0967Z" fill="#00EFD4"/>
<path fill-rule="evenodd" clip-rule="evenodd" d="M4 30.0967C4 31.0967 3.16667 32.0967 2 32.0967C0.999997 32.0967 0 31.2633 0 30.0967C0 29.0967 0.83333 28.0967 2 28.0967C3.16667 28.0967 4 29.0967 4 30.0967Z" fill="#00EFD4"/>
<path fill-rule="evenodd" clip-rule="evenodd" d="M37.625 30.0967C37.625 31.0967 36.7917 32.0967 35.625 32.0967C34.625 32.0967 33.625 31.2633 33.625 30.0967C33.625 29.0967 34.4583 28.0967 35.625 28.0967C36.7917 28.0967 37.625 29.0967 37.625 30.0967Z" fill="#00EFD4"/>
<path fill-rule="evenodd" clip-rule="evenodd" d="M43.2109 30.0967C43.2109 31.0967 42.3776 32.0967 41.2109 32.0967C40.2109 32.0967 39.2109 31.2633 39.2109 30.0967C39.2109 29.0967 40.0443 28.0967 41.2109 28.0967C42.3776 28.0967 43.2109 29.0967 43.2109 30.0967Z" fill="#00EFD4"/>
<path fill-rule="evenodd" clip-rule="evenodd" d="M32.2188 30.0967C32.2188 31.0967 31.3492 32.0967 30.1318 32.0967C29.0883 32.0967 28.2188 31.2633 28.2188 30.0967C28.2188 29.0967 29.0883 28.0967 30.1318 28.0967C31.1753 28.0967 32.2188 29.0967 32.2188 30.0967Z" fill="#00EFD4"/>
<path fill-rule="evenodd" clip-rule="evenodd" d="M54.3594 30.0967C54.3594 31.0967 53.526 32.0967 52.3594 32.0967C51.3594 32.0967 50.3594 31.2633 50.3594 30.0967C50.3594 29.0967 51.1927 28.0967 52.3594 28.0967C53.526 28.0967 54.3594 29.0967 54.3594 30.0967Z" fill="#00EFD4"/>
<path fill-rule="evenodd" clip-rule="evenodd" d="M59.6797 13.0439C59.6797 14.0439 58.8464 15.0439 57.6797 15.0439C56.6797 15.0439 55.6797 14.2106 55.6797 13.0439C55.6797 12.0439 56.513 11.0439 57.6797 11.0439C58.8464 11.0439 59.6797 12.0439 59.6797 13.0439Z" fill="#00EFD4"/>
<path fill-rule="evenodd" clip-rule="evenodd" d="M48.9531 30.0967C48.9531 31.0967 48.0836 32.0967 47.0401 32.0967C45.9966 32.0967 44.9531 31.2633 44.9531 30.0967C44.9531 29.0967 45.8227 28.0967 47.0401 28.0967C48.0836 28.0967 48.9531 29.0967 48.9531 30.0967Z" fill="#00EFD4"/>
<path fill-rule="evenodd" clip-rule="evenodd" d="M20.8906 24.5166C20.8906 25.5166 20.0211 26.5166 18.8037 26.5166C17.7602 26.5166 16.8906 25.6833 16.8906 24.5166C16.8906 23.3499 17.7602 22.5166 18.8037 22.5166C20.0211 22.5166 20.8906 23.3499 20.8906 24.5166Z" fill="#00EFD4"/>
<path fill-rule="evenodd" clip-rule="evenodd" d="M26.4766 24.5166C26.4766 25.5166 25.607 26.5166 24.3896 26.5166C23.3461 26.5166 22.4766 25.6833 22.4766 24.5166C22.4766 23.3499 23.3461 22.5166 24.3896 22.5166C25.607 22.5166 26.4766 23.3499 26.4766 24.5166Z" fill="#00EFD4"/>
<path fill-rule="evenodd" clip-rule="evenodd" d="M15.1562 24.5166C15.1562 25.5166 14.3229 26.5166 13.1563 26.5166C12.1563 26.5166 11.1562 25.6833 11.1562 24.5166C11.1562 23.3499 11.9896 22.5166 13.1563 22.5166C14.3229 22.5166 15.1562 23.3499 15.1562 24.5166Z" fill="#00EFD4"/>
<path fill-rule="evenodd" clip-rule="evenodd" d="M9.57812 24.5166C9.57812 25.5166 8.7448 26.5166 7.57813 26.5166C6.57813 26.5166 5.57812 25.6833 5.57812 24.5166C5.57812 23.3499 6.41147 22.5166 7.57813 22.5166C8.7448 22.5166 9.57812 23.3499 9.57812 24.5166Z" fill="#00EFD4"/>
<path fill-rule="evenodd" clip-rule="evenodd" d="M4 24.5166C4 25.5166 3.16667 26.5166 2 26.5166C0.999997 26.5166 0 25.6833 0 24.5166C0 23.3499 0.83333 22.5166 2 22.5166C3.16667 22.5166 4 23.3499 4 24.5166Z" fill="#00EFD4"/>
<path fill-rule="evenodd" clip-rule="evenodd" d="M37.625 24.5166C37.625 25.5166 36.7917 26.5166 35.625 26.5166C34.625 26.5166 33.625 25.6833 33.625 24.5166C33.625 23.3499 34.4583 22.5166 35.625 22.5166C36.7917 22.5166 37.625 23.3499 37.625 24.5166Z" fill="#00EFD4"/>
<path fill-rule="evenodd" clip-rule="evenodd" d="M43.2109 24.5166C43.2109 25.5166 42.3776 26.5166 41.2109 26.5166C40.2109 26.5166 39.2109 25.6833 39.2109 24.5166C39.2109 23.3499 40.0443 22.5166 41.2109 22.5166C42.3776 22.5166 43.2109 23.3499 43.2109 24.5166Z" fill="#00EFD4"/>
<path fill-rule="evenodd" clip-rule="evenodd" d="M32.2188 24.5166C32.2188 25.5166 31.3492 26.5166 30.1318 26.5166C29.0883 26.5166 28.2188 25.6833 28.2188 24.5166C28.2188 23.3499 29.0883 22.5166 30.1318 22.5166C31.1753 22.5166 32.2188 23.3499 32.2188 24.5166Z" fill="#00EFD4"/>
<path fill-rule="evenodd" clip-rule="evenodd" d="M48.9531 24.5166C48.9531 25.5166 48.0836 26.5166 47.0401 26.5166C45.9966 26.5166 44.9531 25.6833 44.9531 24.5166C44.9531 23.3499 45.8227 22.5166 47.0401 22.5166C48.0836 22.5166 48.9531 23.3499 48.9531 24.5166Z" fill="#00EFD4"/>
<path fill-rule="evenodd" clip-rule="evenodd" d="M9.57812 2.04395C9.57812 3.04395 8.7448 4.04395 7.57813 4.04395C6.57813 4.04395 5.57812 3.21061 5.57812 2.04395C5.57812 1.04394 6.41147 0.0439453 7.57813 0.0439453C8.7448 0.210612 9.57812 1.04394 9.57812 2.04395Z" fill="#00EFD4"/>
<path fill-rule="evenodd" clip-rule="evenodd" d="M4 2.04395C4 3.04395 3.16667 4.04395 2 4.04395C0.999997 4.04395 0 3.21061 0 2.04395C0 1.04394 0.83333 0.0439453 2 0.0439453C3.16667 0.210612 4 1.04394 4 2.04395Z" fill="#00EFD4"/>
</svg>
