<svg width="410" height="2624" viewBox="0 0 410 2624" fill="none" xmlns="http://www.w3.org/2000/svg">
<path d="M318.943 232.182L318.943 5.47126C318.943 2.44956 316.493 -6.68311e-06 313.471 -6.89908e-06C310.45 -7.11504e-06 308 2.44963 308 5.47133L308 1370C308 1398.17 330.833 1421 359 1421C387.166 1421 410 1398.17 410 1370L410 817.99C410 778.686 401.954 739.797 386.356 703.72C370.759 667.643 362.713 628.755 362.713 589.451L362.713 436.614C362.713 400.233 355.265 364.237 340.828 330.844L338.007 324.319C325.431 295.23 318.943 263.873 318.943 232.182Z" fill="url(#paint0_linear_1434_13095)"/>
<path d="M274.958 402.979L274.958 16.5211C274.958 7.39676 282.355 2.01804e-05 291.479 2.08325e-05C300.603 2.14846e-05 308 7.39664 308 16.521L308 2470C308 2555.05 239.052 2624 154 2624C68.9481 2624 -6.83053e-05 2555.05 -6.60316e-05 2470L-4.07456e-05 1524.14C-3.85944e-05 1443.68 24.9427 1365.19 71.3946 1299.48C117.846 1233.78 142.789 1155.29 142.789 1074.82L142.789 818.884C142.789 744.401 165.877 671.75 208.874 610.931C251.87 550.113 274.958 477.461 274.958 402.979Z" fill="url(#paint1_linear_1434_13095)"/>
<defs>
<linearGradient id="paint0_linear_1434_13095" x1="359.195" y1="-3.63109e-06" x2="359.195" y2="1370.38" gradientUnits="userSpaceOnUse">
<stop stop-color="#0A0A0A"/>
<stop offset="0.37467" stop-color="#D9D9D9" stop-opacity="0.728163"/>
<stop offset="0.94636" stop-color="#D9D9D9" stop-opacity="0"/>
</linearGradient>
<linearGradient id="paint1_linear_1434_13095" x1="153.41" y1="1.09645e-05" x2="153.41" y2="2530.52" gradientUnits="userSpaceOnUse">
<stop stop-color="#0A0A0A"/>
<stop offset="0.37467" stop-color="#00EFD4"/>
<stop offset="0.94636" stop-color="#D9D9D9" stop-opacity="0"/>
</linearGradient>
</defs>
</svg>
