<svg width="105" height="896" viewBox="0 0 105 896" fill="none" xmlns="http://www.w3.org/2000/svg">
<path d="M65 136.606V0H53.2246V208.708C53.2246 218.189 50.8783 227.524 46.3949 235.879C41.9115 244.234 39.5652 253.568 39.5652 263.05V520.624C39.5652 531.897 36.1134 542.899 29.6739 552.151C23.2345 561.404 19.7826 572.406 19.7826 583.679V790.656C19.7826 802.655 16.3505 814.403 9.8913 824.515C3.43209 834.627 0 846.376 0 858.374V896H65V136.606Z" fill="url(#paint0_linear_1830_13163)"/>
<path d="M71.8493 0H65V577H105V474.705C105 458.069 102.507 441.528 97.6027 425.631C92.6989 409.735 90.2055 393.193 90.2055 376.558V219.029C90.2055 195.673 87.1194 172.418 81.0274 149.87C74.9354 127.322 71.8493 104.068 71.8493 80.711V0Z" fill="url(#paint1_linear_1830_13163)"/>
<path d="M57 514L21 514" stroke="url(#paint2_linear_1830_13163)" stroke-width="2"/>
<defs>
<linearGradient id="paint0_linear_1830_13163" x1="32.5" y1="-0.424242" x2="32.5" y2="896" gradientUnits="userSpaceOnUse">
<stop stop-color="#00EFD4" stop-opacity="0"/>
<stop offset="0.394791" stop-color="#00EFD4"/>
<stop offset="1" stop-color="white" stop-opacity="0"/>
</linearGradient>
<linearGradient id="paint1_linear_1830_13163" x1="85" y1="0" x2="85" y2="577" gradientUnits="userSpaceOnUse">
<stop stop-color="#D9D9D9" stop-opacity="0"/>
<stop offset="0.316666" stop-color="#D9D9D9"/>
<stop offset="1" stop-color="#D9D9D9" stop-opacity="0"/>
</linearGradient>
<linearGradient id="paint2_linear_1830_13163" x1="56.9545" y1="514" x2="25.3937" y2="514" gradientUnits="userSpaceOnUse">
<stop stop-color="white" stop-opacity="0.3"/>
<stop offset="1" stop-color="#0A0A0A" stop-opacity="0"/>
</linearGradient>
</defs>
</svg>
