<svg width="36" height="45" viewBox="0 0 36 45" fill="none" xmlns="http://www.w3.org/2000/svg">
<path d="M19.9283 15.3896C21.7081 15.3896 23.415 16.1613 24.6735 17.5348C25.932 18.9083 26.639 20.7712 26.639 22.7137C26.639 24.6561 25.932 26.519 24.6735 27.8925C23.415 29.266 21.7081 30.0377 19.9283 30.0377C18.1485 30.0377 16.4416 29.266 15.1831 27.8925C13.9246 26.519 13.2175 24.6561 13.2175 22.7137C13.2175 20.7712 13.9246 18.9083 15.1831 17.5348C16.4416 16.1613 18.1485 15.3896 19.9283 15.3896Z" fill="#FF3D2E"/>
<path d="M20.0302 34.8967C22.9586 34.8967 25.6271 33.7976 27.6482 31.8146L29.0591 30.442L35.4148 37.2646L33.9018 38.8069C30.2657 42.4942 25.3254 44.5304 20.0279 44.5304C8.62746 44.5304 0 35.0664 0 22.5659C0 10.0123 8.42558 0.875 20.0279 0.875C25.228 0.875 30.1172 2.91114 33.7997 6.54022L35.366 8.08251L29.1078 14.9102L27.6993 13.5882C25.6271 11.6052 22.9075 10.5593 20.0302 10.5593C13.4238 10.5593 8.83397 15.5154 8.83397 22.6191C8.83397 29.7228 13.5747 34.8967 20.0302 34.8967Z" fill="#17313B"/>
</svg>
