<svg width="20" height="21" viewBox="0 0 20 21" fill="none" xmlns="http://www.w3.org/2000/svg">
<path fill-rule="evenodd" clip-rule="evenodd" d="M6.27907 0.27832C2.81124 0.27832 0 3.09061 0 6.55974V14.0044C0 17.4735 2.81124 20.2858 6.27907 20.2858H13.7209C17.1887 20.2858 20 17.4735 20 14.0044V6.55974C20 3.09061 17.1887 0.27832 13.7209 0.27832H6.27907ZM14.2142 8.4491C14.4867 8.17655 14.4867 7.73465 14.2142 7.46209C13.9418 7.18952 13.5001 7.18952 13.2276 7.46209L8.92409 11.7672C8.8333 11.858 8.68605 11.858 8.59526 11.7672L6.7724 9.94361C6.49994 9.67105 6.0582 9.67105 5.78574 9.94361C5.51328 10.2162 5.51328 10.6581 5.78574 10.9307L7.60859 12.7542C8.24428 13.3902 9.27507 13.3902 9.91079 12.7542L14.2142 8.4491Z" fill="#00EFD4"/>
</svg>
