<svg width="1362" height="1035" viewBox="0 0 1362 1035" fill="none" xmlns="http://www.w3.org/2000/svg">
<g filter="url(#filter0_if_166_498)">
<ellipse cx="289.536" cy="289.595" rx="289.536" ry="289.595" transform="matrix(0.258724 -0.965876 0.966051 0.258632 331.325 651.172)" fill="url(#paint0_radial_166_498)" fill-opacity="0.4"/>
</g>
<path d="M164.836 199.528C173.425 181.513 195.797 170.824 229.498 167.254C263.133 163.691 307.716 167.262 360.172 177.409C465.069 197.701 601.218 244.243 743.737 312.243C886.255 380.242 1008.1 456.794 1089.88 525.571C1130.77 559.964 1161.61 592.376 1180.01 620.766C1198.44 649.212 1204.22 673.332 1195.63 691.347C1187.04 709.363 1164.67 720.052 1130.97 723.622C1097.33 727.185 1052.75 723.614 1000.29 713.466C895.398 693.175 759.249 646.633 616.73 578.633C474.211 510.634 352.37 434.082 270.59 365.305C229.693 330.912 198.86 298.5 180.46 270.109C162.023 241.663 156.247 217.544 164.836 199.528Z" stroke="url(#paint1_linear_166_498)" stroke-opacity="0.4" stroke-width="2"/>
<g filter="url(#filter1_d_166_498)">
<ellipse cx="7.66576" cy="7.18834" rx="7.66576" ry="7.18834" transform="matrix(-0.902533 -0.430622 0.430359 -0.902658 510.837 227.579)" fill="#1CD0BC"/>
</g>
<defs>
<filter id="filter0_if_166_498" x="346.308" y="106.831" width="679.382" height="679.168" filterUnits="userSpaceOnUse" color-interpolation-filters="sRGB">
<feFlood flood-opacity="0" result="BackgroundImageFix"/>
<feBlend mode="normal" in="SourceGraphic" in2="BackgroundImageFix" result="shape"/>
<feColorMatrix in="SourceAlpha" type="matrix" values="0 0 0 0 0 0 0 0 0 0 0 0 0 0 0 0 0 0 127 0" result="hardAlpha"/>
<feMorphology radius="250" operator="erode" in="SourceAlpha" result="effect1_innerShadow_166_498"/>
<feOffset dy="4"/>
<feGaussianBlur stdDeviation="75"/>
<feComposite in2="hardAlpha" operator="arithmetic" k2="-1" k3="1"/>
<feColorMatrix type="matrix" values="0 0 0 0 0 0 0 0 0 0 0 0 0 0 0 0 0 0 0.25 0"/>
<feBlend mode="normal" in2="shape" result="effect1_innerShadow_166_498"/>
<feGaussianBlur stdDeviation="25" result="effect2_foregroundBlur_166_498"/>
</filter>
<filter id="filter1_d_166_498" x="349.432" y="60.5078" width="315.161" height="314.563" filterUnits="userSpaceOnUse" color-interpolation-filters="sRGB">
<feFlood flood-opacity="0" result="BackgroundImageFix"/>
<feColorMatrix in="SourceAlpha" type="matrix" values="0 0 0 0 0 0 0 0 0 0 0 0 0 0 0 0 0 0 127 0" result="hardAlpha"/>
<feMorphology radius="50" operator="dilate" in="SourceAlpha" result="effect1_dropShadow_166_498"/>
<feOffset/>
<feGaussianBlur stdDeviation="50"/>
<feComposite in2="hardAlpha" operator="out"/>
<feColorMatrix type="matrix" values="0 0 0 0 0.0392157 0 0 0 0 0.0392157 0 0 0 0 0.0392157 0 0 0 1 0"/>
<feBlend mode="normal" in2="BackgroundImageFix" result="effect1_dropShadow_166_498"/>
<feBlend mode="normal" in="SourceGraphic" in2="effect1_dropShadow_166_498" result="shape"/>
</filter>
<radialGradient id="paint0_radial_166_498" cx="0" cy="0" r="1" gradientUnits="userSpaceOnUse" gradientTransform="translate(-15.1188 91.533) rotate(55.181) scale(586.146 586.104)">
<stop stop-color="#00F3C8"/>
<stop stop-color="#1CD0BC"/>
<stop offset="0.0001" stop-color="#00F3C8"/>
<stop offset="1" stop-color="#0A0A0A"/>
<stop offset="1" stop-color="#D9D9D9" stop-opacity="0"/>
</radialGradient>
<linearGradient id="paint1_linear_166_498" x1="730.989" y1="294.735" x2="692.314" y2="644.931" gradientUnits="userSpaceOnUse">
<stop stop-color="#1CD0BC"/>
<stop offset="1" stop-color="#353535" stop-opacity="0"/>
</linearGradient>
</defs>
</svg>
