<svg width="41" height="46" viewBox="0 0 41 46" fill="none" xmlns="http://www.w3.org/2000/svg">
<path fill-rule="evenodd" clip-rule="evenodd" d="M20.5 45.4386C31.8218 45.4386 41 35.4217 41 23.0653C41 10.7088 31.8218 0.691895 20.5 0.691895C9.17816 0.691895 0 10.7088 0 23.0653C0 35.4217 9.17816 45.4386 20.5 45.4386ZM25.0879 25.6971C26.1582 26.6062 27.3361 27.1647 28.5932 27.1647C30.2863 27.1647 31.6679 25.7148 31.6736 23.9382C31.6736 22.1556 30.2919 20.7057 28.5932 20.7057C26.3281 20.7057 25.5919 22.9995 25.3599 24.366L25.3485 24.4136L25.0879 25.6971ZM22.5456 22.6488C23.4572 19.4045 25.6995 17.4317 28.5932 17.4317C32.0076 17.4317 34.7879 20.3492 34.7879 23.9263C34.7879 27.5094 32.0075 30.4448 28.593 30.4448C26.9962 30.4448 25.6031 29.9337 24.3913 29.1196L23.0097 35.9469H19.8216L21.73 26.5349C20.8296 25.3464 20.0878 24.0095 19.482 22.6845V24.1105C19.482 27.5926 16.7809 30.4506 13.4625 30.4506C10.1443 30.4506 7.44325 27.5926 7.45458 24.1105V15.6075H10.5693V24.1105C10.5693 25.7862 11.8716 27.1527 13.4684 27.1527C15.0653 27.1527 16.3677 25.7862 16.3677 24.1105V15.6075H19.4821C20.0993 17.8239 21.1526 20.4562 22.5456 22.6488Z" fill="#14A800"/>
</svg>
