<svg width="24" height="24" viewBox="0 0 24 24" fill="none" xmlns="http://www.w3.org/2000/svg">
<path opacity="0.4" d="M6.28235 24.0004H11.6672C16.1546 24.0004 17.9496 22.2054 17.9496 17.718V12.3331C17.9496 7.84574 16.1546 6.05078 11.6672 6.05078H6.28235C1.79496 6.05078 0 7.84574 0 12.3331V17.718C0 22.2054 1.79496 24.0004 6.28235 24.0004Z" fill="#00EFD4"/>
<path d="M23.1021 10.1849C22.6111 10.1849 22.2041 9.77748 22.2041 9.28621C22.2041 5.73948 19.7375 2.76789 16.4209 1.98905L16.7442 2.52825C16.9956 2.9596 16.8639 3.51079 16.4329 3.76241C16.0019 4.01404 15.4511 3.88223 15.1996 3.45087L13.9424 1.35399C13.7748 1.0784 13.7748 0.730915 13.9305 0.455324C14.0981 0.179733 14.3974 0 14.7207 0C19.8333 0 24.0001 4.16981 24.0001 9.28621C24.0001 9.77748 23.593 10.1849 23.1021 10.1849Z" fill="white"/>
</svg>
